<?xml version="1.0" encoding="UTF-8" standalone="no"?>
<!-- Created with Inkscape (http://www.inkscape.org/) -->

<svg
   version="1.1"
   id="svg2"
   width="1000"
   height="549.33331"
   viewBox="0 0 1000 549.33331"
   sodipodi:docname="8040815.eps"
   xmlns:inkscape="http://www.inkscape.org/namespaces/inkscape"
   xmlns:sodipodi="http://sodipodi.sourceforge.net/DTD/sodipodi-0.dtd"
   xmlns="http://www.w3.org/2000/svg"
   xmlns:svg="http://www.w3.org/2000/svg">
  <defs
     id="defs6" />
  <sodipodi:namedview
     id="namedview4"
     pagecolor="#ffffff"
     bordercolor="#000000"
     borderopacity="0.25"
     inkscape:showpageshadow="2"
     inkscape:pageopacity="0.0"
     inkscape:pagecheckerboard="0"
     inkscape:deskcolor="#d1d1d1" />
  <g
     id="g8"
     inkscape:groupmode="layer"
     inkscape:label="ink_ext_XXXXXX"
     transform="matrix(1.3333333,0,0,-1.3333333,0,549.33333)">
    <g
       id="g10"
       transform="scale(0.1)">
      <path
         d="M 2039.34,2477.77 H 1304.29 V 3863.5 h 735.05 V 2477.77"
         style="fill:#e2e2e0;fill-opacity:1;fill-rule:nonzero;stroke:none"
         id="path12" />
      <path
         d="M 2003.27,2477.77 H 1139.83 V 3863.5 h 863.44 V 2477.77"
         style="fill:#ededeb;fill-opacity:1;fill-rule:nonzero;stroke:none"
         id="path14" />
      <path
         d="M 1871.62,3740.41 V 2600.85 h -600.55 v 1139.56 h 600.55"
         style="fill:#ffffff;fill-opacity:1;fill-rule:nonzero;stroke:none"
         id="path16" />
      <path
         d="m 1690.76,3057.39 h -193.91 v 297.27 h 193.91 v -297.27"
         style="fill:#dadbd8;fill-opacity:1;fill-rule:nonzero;stroke:none"
         id="path18" />
      <path
         d="m 805.238,1420.29 c 29.598,36.48 86.805,60.83 149.606,72.54 -4.926,-17.96 -1.235,-34.53 9.386,-38.6 11.844,-4.54 27.731,8.18 35.485,28.41 2.185,5.71 3.405,11.36 3.885,16.7 63.32,5.15 126.64,-2.14 168.9,-22.42 0,0 -41.38,-37.29 -88.24,-135.35 -1.44,0.06 -2.88,0.1 -4.35,0.09 -30.32,-0.31 -54.77,-14.95 -54.59,-32.71 0.13,-12.97 13.39,-23.99 32.34,-28.89 -2.46,-6.28 -4.92,-12.66 -7.37,-19.29 -44.64,-120.82 -163.739,-33.48 -162.665,49.21 0,0 -148.711,28.56 -82.387,110.31"
         style="fill:#e2e2e0;fill-opacity:1;fill-rule:nonzero;stroke:none"
         id="path20" />
      <path
         d="m 658.516,1576.25 c -36.473,39.38 -103.512,62.85 -175.985,71.51 6.957,-20.11 3.989,-39.28 -7.812,-44.71 -13.168,-6.06 -32.235,7.25 -42.582,29.73 -2.922,6.35 -4.731,12.7 -5.68,18.75 -72.57,1.13 -144.215,-11.91 -190.875,-38.19 0,0 49.957,-39.42 110.719,-147.7 1.637,0.16 3.273,0.32 4.949,0.42 34.602,1.92 63.559,-12.95 64.684,-33.21 0.824,-14.8 -13.469,-28.35 -34.707,-35.35 3.277,-6.97 6.558,-14.07 9.847,-21.45 59.934,-134.4 189.176,-25.92 181.766,68.28 0,0 167.398,43.69 85.676,131.92"
         style="fill:#e2e2e0;fill-opacity:1;fill-rule:nonzero;stroke:none"
         id="path22" />
      <path
         d="m 569.941,1605.76 c 15.489,75.6 80.411,154.43 163.055,219.1 6.438,-29.91 24.379,-51.27 42.942,-49.15 20.707,2.36 34.218,32.94 30.187,68.3 -1.141,9.98 -3.652,19.14 -7,27.29 88.383,55.49 186.184,92.86 263.145,95.33 0,0 -32.04,-85.71 -26.02,-264.13 -2.14,-1.01 -4.27,-2.03 -6.4,-3.17 -43.967,-23.43 -68.491,-63.3 -54.772,-89.04 10.024,-18.81 37.702,-24.82 69.022,-17.59 1.17,-11.02 2.43,-22.19 3.88,-33.71 26.51,-209.92 -213.257,-172.89 -274.367,-51.55 0,0 -238.375,-71.09 -203.672,98.32"
         style="fill:#e7e8e5;fill-opacity:1;fill-rule:nonzero;stroke:none"
         id="path24" />
      <path
         d="m 746.371,1127.5 c -8.129,45.18 -12.109,91.03 -12.109,136.9 -0.008,178.36 60.25,356.93 170.996,496.92 l -5.883,4.66 C 787.531,1624.58 726.766,1444.44 726.762,1264.4 c 0,-46.3 4.019,-92.6 12.226,-138.23 l 7.383,1.33"
         style="fill:#dadbd8;fill-opacity:1;fill-rule:nonzero;stroke:none"
         id="path26" />
      <path
         d="m 444.766,1550.07 c 166.382,-86.25 259.004,-272.74 283.527,-344.85 0.387,-1.13 1.281,-2 2.418,-2.36 1.133,-0.36 2.371,-0.16 3.336,0.54 0.031,0.02 12.832,9.31 33.637,24.27 62.402,44.89 196.574,140.66 270.716,188.16 1.74,1.12 2.25,3.44 1.13,5.18 -1.12,1.74 -3.44,2.25 -5.18,1.13 -99.256,-63.6 -304.674,-212.65 -304.709,-212.67 l 2.203,-3.04 3.547,1.21 c -25.118,73.41 -117.922,261.07 -287.168,349.09 -1.84,0.96 -4.106,0.24 -5.059,-1.6 -0.953,-1.84 -0.238,-4.1 1.602,-5.06"
         style="fill:#dadbd8;fill-opacity:1;fill-rule:nonzero;stroke:none"
         id="path28" />
      <path
         d="M 988.969,1055.91 H 484.445 l 0.196,92.41 h 503.808 l 0.52,-92.41"
         style="fill:#dadbd8;fill-opacity:1;fill-rule:nonzero;stroke:none"
         id="path30" />
      <path
         d="m 520.996,1086.04 78.828,-327.919 h 290.289 l 70.293,327.919 h -439.41"
         style="fill:#dadbd8;fill-opacity:1;fill-rule:nonzero;stroke:none"
         id="path32" />
      <path
         d="m 512.578,1164.79 c 14.957,0 29.918,0 44.879,0 1.379,0 2.496,1.12 2.496,2.5 0,1.38 -1.117,2.5 -2.496,2.5 -14.961,0 -29.922,0 -44.879,0 -1.383,0 -2.5,-1.12 -2.5,-2.5 0,-1.38 1.117,-2.5 2.5,-2.5"
         style="fill:#dadbd8;fill-opacity:1;fill-rule:nonzero;stroke:none"
         id="path34" />
      <path
         d="m 578.078,1164.79 c 40.942,0 81.879,0 122.82,0 1.379,0 2.5,1.12 2.5,2.5 0,1.38 -1.121,2.5 -2.5,2.5 -40.941,0 -81.878,0 -122.82,0 -1.379,0 -2.5,-1.12 -2.5,-2.5 0,-1.38 1.121,-2.5 2.5,-2.5"
         style="fill:#dadbd8;fill-opacity:1;fill-rule:nonzero;stroke:none"
         id="path36" />
      <path
         d="m 4660.99,1355.82 c 26.71,32.93 78.35,54.91 135.04,65.48 -4.45,-16.21 -1.12,-31.17 8.47,-34.85 10.69,-4.09 25.03,7.39 32.03,25.65 1.98,5.15 3.07,10.26 3.51,15.08 57.15,4.64 114.31,-1.93 152.45,-20.24 0,0 -37.34,-33.66 -79.64,-122.17 -1.3,0.05 -2.6,0.09 -3.93,0.08 -27.37,-0.28 -49.43,-13.5 -49.27,-29.53 0.11,-11.71 12.08,-21.65 29.19,-26.07 -2.23,-5.67 -4.45,-11.43 -6.66,-17.42 -40.29,-109.06 -147.79,-30.22 -146.83,44.42 0,0 -134.23,25.78 -74.36,99.57"
         style="fill:#e2e2e0;fill-opacity:1;fill-rule:nonzero;stroke:none"
         id="path38" />
      <path
         d="m 4528.55,1496.6 c -32.92,35.55 -93.43,56.73 -158.85,64.55 6.28,-18.16 3.6,-35.46 -7.05,-40.36 -11.89,-5.48 -29.1,6.54 -38.44,26.84 -2.64,5.72 -4.27,11.46 -5.12,16.92 -65.51,1.02 -130.18,-10.75 -172.3,-34.47 0,0 45.1,-35.59 99.94,-133.32 1.48,0.15 2.96,0.29 4.47,0.37 31.23,1.74 57.37,-11.68 58.39,-29.97 0.74,-13.36 -12.16,-25.59 -31.33,-31.91 2.96,-6.29 5.92,-12.7 8.89,-19.36 54.1,-121.32 170.75,-23.39 164.07,61.64 0,0 151.1,39.43 77.33,119.07"
         style="fill:#e2e2e0;fill-opacity:1;fill-rule:nonzero;stroke:none"
         id="path40" />
      <path
         d="m 4448.6,1523.24 c 13.98,68.24 72.58,139.39 147.18,197.77 5.81,-27.01 22,-46.28 38.76,-44.37 18.69,2.13 30.89,29.73 27.25,61.65 -1.03,9.01 -3.3,17.28 -6.32,24.63 79.78,50.09 168.06,83.82 237.53,86.05 0,0 -28.92,-77.36 -23.49,-238.41 -1.93,-0.92 -3.86,-1.84 -5.78,-2.86 -39.68,-21.16 -61.82,-57.14 -49.44,-80.38 9.05,-16.98 34.03,-22.4 62.31,-15.87 1.05,-9.95 2.19,-20.03 3.5,-30.43 23.93,-189.49 -192.5,-156.06 -247.66,-46.54 0,0 -215.17,-64.16 -183.84,88.76"
         style="fill:#e7e8e5;fill-opacity:1;fill-rule:nonzero;stroke:none"
         id="path42" />
      <path
         d="m 4608.21,1091.6 c -7.33,40.76 -10.92,82.13 -10.92,123.51 -0.01,160.91 54.35,322.02 154.27,448.32 l -5.89,4.65 c -101,-127.7 -155.88,-290.37 -155.89,-452.97 0,-41.82 3.64,-83.63 11.05,-124.83 l 7.38,1.32"
         style="fill:#dadbd8;fill-opacity:1;fill-rule:nonzero;stroke:none"
         id="path44" />
      <path
         d="m 4335.44,1472.65 c 150.05,-77.77 233.64,-246.05 255.75,-311.08 0.38,-1.12 1.28,-2 2.42,-2.36 1.13,-0.36 2.37,-0.16 3.33,0.54 0.03,0.02 11.58,8.4 30.37,21.91 56.32,40.52 177.43,126.96 244.34,169.83 1.74,1.11 2.25,3.44 1.13,5.18 -1.12,1.74 -3.44,2.25 -5.18,1.13 -89.62,-57.42 -275.03,-191.96 -275.06,-191.98 l 2.2,-3.04 3.55,1.22 c -22.7,66.32 -106.48,235.77 -259.39,315.3 -1.84,0.96 -4.1,0.24 -5.06,-1.6 -0.95,-1.83 -0.24,-4.1 1.6,-5.05 v 0"
         style="fill:#dadbd8;fill-opacity:1;fill-rule:nonzero;stroke:none"
         id="path46" />
      <path
         d="m 4826.83,1026.92 h -455.4 l 0.17,83.41 h 454.77 l 0.46,-83.41"
         style="fill:#dadbd8;fill-opacity:1;fill-rule:nonzero;stroke:none"
         id="path48" />
      <path
         d="m 4404.42,1054.12 71.15,-295.999 h 262.03 l 63.45,295.999 h -396.63"
         style="fill:#dadbd8;fill-opacity:1;fill-rule:nonzero;stroke:none"
         id="path50" />
      <path
         d="m 4396.82,1124.95 c 13.5,0 27.01,0 40.51,0 1.38,0 2.5,1.12 2.5,2.5 0,1.38 -1.12,2.5 -2.5,2.5 -13.5,0 -27.01,0 -40.51,0 -1.38,0 -2.5,-1.12 -2.5,-2.5 0,-1.38 1.12,-2.5 2.5,-2.5 v 0"
         style="fill:#dadbd8;fill-opacity:1;fill-rule:nonzero;stroke:none"
         id="path52" />
      <path
         d="m 4455.95,1124.95 c 36.95,0 73.9,0 110.86,0 1.38,0 2.5,1.12 2.5,2.5 0,1.38 -1.12,2.5 -2.5,2.5 -36.96,0 -73.91,0 -110.86,0 -1.39,0 -2.51,-1.12 -2.51,-2.5 0,-1.38 1.12,-2.5 2.51,-2.5 v 0"
         style="fill:#dadbd8;fill-opacity:1;fill-rule:nonzero;stroke:none"
         id="path54" />
      <path
         d="m 6863.44,1376.59 c 27.65,34.07 81.08,56.81 139.73,67.75 -4.6,-16.78 -1.15,-32.26 8.77,-36.06 11.06,-4.24 25.9,7.64 33.14,26.54 2.05,5.33 3.18,10.61 3.63,15.6 59.14,4.81 118.28,-2 157.75,-20.94 0,0 -38.64,-34.83 -82.41,-126.41 -1.34,0.04 -2.69,0.09 -4.06,0.07 -28.33,-0.28 -51.16,-13.96 -50.99,-30.55 0.12,-12.11 12.51,-22.4 30.2,-26.97 -2.3,-5.87 -4.59,-11.84 -6.88,-18.03 -41.69,-112.85 -152.93,-31.27 -151.93,45.97 0,0 -138.89,26.68 -76.95,103.03"
         style="fill:#e2e2e0;fill-opacity:1;fill-rule:nonzero;stroke:none"
         id="path56" />
      <path
         d="m 6726.4,1522.26 c -34.06,36.78 -96.68,58.7 -164.37,66.79 6.5,-18.79 3.73,-36.69 -7.3,-41.77 -12.29,-5.66 -30.1,6.77 -39.77,27.77 -2.73,5.93 -4.41,11.87 -5.3,17.52 -67.78,1.05 -134.69,-11.13 -178.28,-35.68 0,0 46.66,-36.81 103.41,-137.95 1.53,0.16 3.06,0.31 4.63,0.39 32.31,1.8 59.36,-12.09 60.41,-31.01 0.77,-13.82 -12.58,-26.48 -32.41,-33.02 3.06,-6.51 6.12,-13.14 9.19,-20.03 55.98,-125.53 176.69,-24.21 169.77,63.77 0,0 156.35,40.8 80.02,123.22"
         style="fill:#e2e2e0;fill-opacity:1;fill-rule:nonzero;stroke:none"
         id="path58" />
      <path
         d="m 6643.67,1549.82 c 14.47,70.61 75.11,144.23 152.3,204.64 6.01,-27.94 22.77,-47.89 40.1,-45.91 19.34,2.21 31.97,30.77 28.2,63.79 -1.06,9.32 -3.41,17.88 -6.54,25.49 82.55,51.82 173.9,86.73 245.78,89.04 0,0 -29.92,-80.05 -24.3,-246.7 -2,-0.94 -3.99,-1.9 -5.98,-2.96 -41.07,-21.88 -63.97,-59.12 -51.16,-83.17 9.36,-17.56 35.21,-23.18 64.47,-16.42 1.09,-10.29 2.27,-20.73 3.63,-31.49 24.75,-196.06 -199.19,-161.48 -256.26,-48.15 0,0 -222.65,-66.39 -190.24,91.84"
         style="fill:#e7e8e5;fill-opacity:1;fill-rule:nonzero;stroke:none"
         id="path60" />
      <path
         d="m 6808.7,1103.17 c -7.59,42.18 -11.31,84.99 -11.31,127.81 0,166.54 56.26,333.27 159.66,463.98 l -5.88,4.65 c -104.5,-132.11 -161.27,-300.41 -161.28,-468.63 0,-43.25 3.76,-86.51 11.43,-129.14 l 7.38,1.33"
         style="fill:#dadbd8;fill-opacity:1;fill-rule:nonzero;stroke:none"
         id="path62" />
      <path
         d="m 6526.64,1497.59 c 155.31,-80.5 241.82,-254.65 264.7,-321.96 0.38,-1.12 1.28,-2 2.42,-2.36 1.13,-0.36 2.37,-0.16 3.33,0.54 0.03,0.02 11.99,8.69 31.42,22.67 58.28,41.92 183.6,131.37 252.84,175.73 1.74,1.12 2.25,3.44 1.13,5.18 -1.12,1.74 -3.44,2.25 -5.18,1.14 -92.72,-59.42 -284.58,-198.63 -284.61,-198.65 l 2.2,-3.04 3.55,1.21 c -23.48,68.61 -110.17,243.92 -268.34,326.19 -1.84,0.96 -4.1,0.24 -5.06,-1.6 -0.95,-1.84 -0.23,-4.1 1.6,-5.05"
         style="fill:#dadbd8;fill-opacity:1;fill-rule:nonzero;stroke:none"
         id="path64" />
      <path
         d="m 7035.04,1036.26 h -471.22 l 0.18,86.31 h 470.56 l 0.48,-86.31"
         style="fill:#dadbd8;fill-opacity:1;fill-rule:nonzero;stroke:none"
         id="path66" />
      <path
         d="m 6597.96,1064.4 73.63,-306.279 h 271.13 l 65.65,306.279 h -410.41"
         style="fill:#dadbd8;fill-opacity:1;fill-rule:nonzero;stroke:none"
         id="path68" />
      <path
         d="m 6590.1,1137.78 c 13.97,0 27.94,0 41.91,0 1.38,0 2.5,1.12 2.5,2.5 0,1.38 -1.12,2.5 -2.5,2.5 -13.97,0 -27.94,0 -41.91,0 -1.39,0 -2.5,-1.12 -2.5,-2.5 0,-1.38 1.11,-2.5 2.5,-2.5"
         style="fill:#dadbd8;fill-opacity:1;fill-rule:nonzero;stroke:none"
         id="path70" />
      <path
         d="m 6651.27,1137.78 c 38.24,0 76.48,0 114.72,0 1.38,0 2.5,1.12 2.5,2.5 0,1.38 -1.12,2.5 -2.5,2.5 -38.24,0 -76.48,0 -114.72,0 -1.38,0 -2.5,-1.12 -2.5,-2.5 0,-1.38 1.12,-2.5 2.5,-2.5"
         style="fill:#dadbd8;fill-opacity:1;fill-rule:nonzero;stroke:none"
         id="path72" />
      <path
         d="m 4929.88,4117.49 c -30.95,0 -56.13,-25.17 -56.13,-56.12 V 1428.64 c 0,-30.95 25.18,-56.12 56.13,-56.12 h 1807.46 c 30.94,0 56.12,25.17 56.12,56.12 v 2632.73 c 0,30.95 -25.18,56.12 -56.12,56.12 H 4929.88 M 6737.34,1370.02 H 4929.88 c -32.33,0 -58.63,26.29 -58.63,58.62 v 2632.73 c 0,32.33 26.3,58.62 58.63,58.62 h 1807.46 c 32.32,0 58.62,-26.29 58.62,-58.62 V 1428.64 c 0,-32.33 -26.3,-58.62 -58.62,-58.62"
         style="fill:#dadbd8;fill-opacity:1;fill-rule:nonzero;stroke:none"
         id="path74" />
      <path
         d="m 2845.59,4117.49 c -30.94,0 -56.11,-25.17 -56.11,-56.12 V 1428.64 c 0,-30.95 25.17,-56.12 56.11,-56.12 h 1807.47 c 30.95,0 56.12,25.17 56.12,56.12 v 2632.73 c 0,30.95 -25.17,56.12 -56.12,56.12 H 2845.59 M 4653.06,1370.02 H 2845.59 c -32.32,0 -58.61,26.29 -58.61,58.62 v 2632.73 c 0,32.33 26.29,58.62 58.61,58.62 h 1807.47 c 32.32,0 58.62,-26.29 58.62,-58.62 V 1428.64 c 0,-32.33 -26.3,-58.62 -58.62,-58.62"
         style="fill:#dadbd8;fill-opacity:1;fill-rule:nonzero;stroke:none"
         id="path76" />
      <path
         d="m 762.656,4117.49 c -30.941,0 -56.117,-25.17 -56.117,-56.12 V 1428.64 c 0,-30.95 25.176,-56.12 56.117,-56.12 H 2570.12 c 30.95,0 56.13,25.17 56.13,56.12 v 2632.73 c 0,30.95 -25.18,56.12 -56.13,56.12 H 762.656 M 2570.12,1370.02 H 762.656 c -32.32,0 -58.613,26.29 -58.613,58.62 v 2632.73 c 0,32.33 26.293,58.62 58.613,58.62 H 2570.12 c 32.33,0 58.63,-26.29 58.63,-58.62 V 1428.64 c 0,-32.33 -26.3,-58.62 -58.63,-58.62"
         style="fill:#dadbd8;fill-opacity:1;fill-rule:nonzero;stroke:none"
         id="path78" />
      <path
         d="m 0,758.121 h 7500 v 1.19922 H 0 Z"
         style="fill:#dadbd8;fill-opacity:1;fill-rule:nonzero;stroke:none"
         id="path80" />
      <path
         d="m 6536.26,465.559 h 557.29 v -4.2 h -557.29 v 4.2"
         style="fill:#e7e8e5;fill-opacity:1;fill-rule:nonzero;stroke:none"
         id="path82" />
      <path
         d="m 4950.44,419.898 h 146.26 v -4.199 h -146.26 v 4.199"
         style="fill:#e7e8e5;fill-opacity:1;fill-rule:nonzero;stroke:none"
         id="path84" />
      <path
         d="m 406.445,589.328 h 726.746 v 4.20313 H 406.445 Z"
         style="fill:#e7e8e5;fill-opacity:1;fill-rule:nonzero;stroke:none"
         id="path86" />
      <path
         d="m 1282.99,593.531 h 106.56 v -4.203 h -106.56 v 4.203"
         style="fill:#e7e8e5;fill-opacity:1;fill-rule:nonzero;stroke:none"
         id="path88" />
      <path
         d="m 1735.86,518.289 h 1576.12 v 4.19922 H 1735.86 Z"
         style="fill:#e7e8e5;fill-opacity:1;fill-rule:nonzero;stroke:none"
         id="path90" />
      <path
         d="M 5838.08,61.3281 C 5838.08,27.4609 4728.02,0 3358.69,0 1989.36,0 879.305,27.4609 879.305,61.3281 c 0,33.8633 1110.055,61.3199 2479.385,61.3199 1369.33,0 2479.39,-27.4566 2479.39,-61.3199"
         style="fill:#f3f2f1;fill-opacity:1;fill-rule:nonzero;stroke:none"
         id="path92" />
      <path
         d="M 5218.9,2018.82 H 6534.37 V 3904.48 H 5218.9 Z"
         style="fill:#406fbf;fill-opacity:1;fill-rule:nonzero;stroke:none"
         id="path94" />
      <path
         d="M 6534.37,2018.82 H 6195.4 l -9.94,48.33 c 6.65,6.29 10.95,9.26 10.95,9.26 l -29.36,149.06 -13.98,-0.73 -65.35,317.91 -115.94,212.52 c -68.03,-1.39 -129.75,-7.82 -184.02,-16.46 1.01,2.82 1.5,4.45 1.5,4.45 0,0 -24.18,52.36 -23.07,156.82 16.44,13.08 30.37,34.93 32.79,60.34 1.31,13.67 -3.16,26.47 -11.31,35.43 4.06,10.32 5.99,21.72 7.24,35.72 0.13,1.5 0.24,2.98 0.31,4.45 0.68,-0.15 1.03,-0.22 1.03,-0.22 v 0 0 0 0 0 0 c -2.06,78.49 -28.58,151.04 -162.86,155.54 -1.95,0.07 -3.87,0.1 -5.79,0.1 -129.34,0 -158.62,-148.08 -158.62,-148.08 v 0 0 c 0,0 1.96,0.73 5.5,1.95 -1.65,-18.13 0.59,-40.18 7.76,-56.22 -0.83,-50.79 12.39,-103.97 30.66,-142.72 23.2,-49.21 70.86,-76.69 118.28,-76.69 7.31,0 14.61,0.66 21.82,1.98 1.12,-9.7 2,-19.44 2.66,-28.68 0.01,-0.04 0.01,-0.06 0.01,-0.06 v 0 c 0.84,-11.68 1.34,-22.56 1.53,-31.51 -51.13,-13.33 -88.08,-25.98 -108.41,-31.84 -4.34,-1.25 -31.72,-11.82 -39.2,-18.08 -70.83,-41.7 -141.36,-287.67 -141.36,-287.67 l 14.87,-4.85 -1.25,-5.09 -28.82,-117.74 -125.07,-74.14 c -0.95,0.08 -1.9,0.12 -2.86,0.12 h -6.2 v 1732.46 h 1315.47 -93.63 C 6140.73,3703.19 5222.79,3129.17 5222.79,3129.17 v -159.56 l 1311.58,816.1 V 2018.82 m -886.35,1885.66 c -235.3,-148.43 -425.23,-267.2 -425.23,-267.2 v -384.86 l 1047.94,652.06 h -622.71 m -64.5,-1885.66 h -305.81 l -1.7,21.15 c 86.77,26.88 165.51,54.68 176.82,70.11 17.52,23.88 54.83,135.97 78.29,209.79 l 11.17,-3.86 c 13.64,-99.31 28.87,-200.36 41.23,-297.19"
         style="fill:#cfe0f5;fill-opacity:1;fill-rule:nonzero;stroke:none"
         id="path96" />
      <path
         d="m 5222.79,3252.42 v 384.86 c 0,0 189.93,118.77 425.23,267.2 h 622.71 L 5222.79,3252.42"
         style="fill:#f5fafe;fill-opacity:1;fill-rule:nonzero;stroke:none"
         id="path98" />
      <path
         d="m 5222.79,2969.61 v 159.56 c 0,0 917.94,574.02 1217.95,775.31 h 93.63 v -118.77 l -1311.58,-816.1"
         style="fill:#f5fafe;fill-opacity:1;fill-rule:nonzero;stroke:none"
         id="path100" />
      <path
         d="M 3118.33,2026.78 H 4433.8 V 3912.44 H 3118.33 Z"
         style="fill:#406fbf;fill-opacity:1;fill-rule:nonzero;stroke:none"
         id="path102" />
      <path
         d="M 4433.8,2026.78 H 3127.38 c -3.07,6.97 -6.1,13.68 -9.05,20.12 v 378.39 l 3.89,0.73 v -56.91 l 143.51,89.29 c -1.56,-4.03 -2.88,-8.13 -3.85,-12.34 -1.23,-5.38 -1.81,-10.86 -1.81,-16.34 0.01,-22.03 9.51,-44.06 24.77,-60.2 19.05,-20.16 46.1,-31.65 73.62,-35.17 5.88,-0.75 11.85,-1.14 17.8,-1.14 19.78,0 39.55,4.34 56.5,14.35 11.63,6.88 22.29,17.29 24.6,30.61 0.33,1.91 0.48,3.81 0.48,5.69 0,13.22 -7.45,25.92 -13.55,38.03 -6.64,13.2 -11.98,27.88 -11.99,42.41 0,4.65 0.54,9.28 1.75,13.84 6.32,23.72 29.32,40.13 35.86,63.79 1.22,4.41 1.8,8.92 1.8,13.44 0,9.29 -2.41,18.59 -6.58,27.1 l 968.67,602.74 V 2026.78 M 3129.32,2533.1 c -3.38,8.2 -7.04,16.72 -10.99,25.48 V 3912.45 H 4433.8 c 0,-23.38 -1311.58,-843.56 -1311.58,-843.56 v -384.86 l 1311.58,816.11 v -127.93 c 0,-22.36 -1200.98,-774.34 -1304.48,-839.11"
         style="fill:#cfe0f5;fill-opacity:1;fill-rule:nonzero;stroke:none"
         id="path104" />
      <path
         d="m 3122.22,2684.03 v 384.86 c 0,0 1311.58,820.18 1311.58,843.56 V 3500.14 L 3122.22,2684.03"
         style="fill:#f5fafe;fill-opacity:1;fill-rule:nonzero;stroke:none"
         id="path106" />
      <path
         d="m 3122.22,2369.11 v 56.91 l 40.68,7.67 c 0,0 -9.86,41.83 -33.58,99.41 103.5,64.77 1304.48,816.75 1304.48,839.11 v -187 l -968.67,-602.74 c -3.25,6.63 -7.56,12.78 -12.62,18.07 -14.75,15.4 -35.02,24.41 -55.6,29.99 -9.31,2.52 -18.99,4.41 -28.58,4.41 -4.68,0 -9.33,-0.45 -13.92,-1.49 -13.98,-3.18 -27.18,-12.89 -31.16,-26.67 -3.08,-10.7 -0.52,-22.81 -5.58,-32.72 -3.01,-5.9 -8.35,-10.21 -13.37,-14.53 -5.02,-4.32 -10.07,-9.12 -12.14,-15.41 -0.53,-1.6 -0.79,-3.32 -0.79,-5.03 0,-4.75 2.02,-9.49 6.04,-11.69 l -3.1,1.53 c -1.59,-25.48 -19.32,-46.71 -28.58,-70.53 l -143.51,-89.29"
         style="fill:#f5fafe;fill-opacity:1;fill-rule:nonzero;stroke:none"
         id="path108" />
      <path
         d="m 1876.39,2217.68 -31.44,160.12 h 312.38 l 25,-54.01 v 54.01 h 51.76 l 7.14,-68.71 19.64,68.71 h 94.6 l -41.84,-155.17 -437.24,-4.95"
         style="fill:#406fbf;fill-opacity:1;fill-rule:nonzero;stroke:none"
         id="path110" />
      <path
         d="m 2313.63,2222.63 h -438.21 l -30.47,155.17 h 312.38 l 25,-54.01 v 54.01 h 51.76 l 7.14,-68.71 19.64,68.71 h 94.6 l -41.84,-155.17"
         style="fill:#6d97d6;fill-opacity:1;fill-rule:nonzero;stroke:none"
         id="path112" />
      <path
         d="m 2051.61,1536.35 h 49.4805 v 637.039 H 2051.61 Z"
         style="fill:#17282f;fill-opacity:1;fill-rule:nonzero;stroke:none"
         id="path114" />
      <path
         d="m 1867.51,2173.39 h 467.148 v 49.2383 H 1867.51 Z"
         style="fill:#17282f;fill-opacity:1;fill-rule:nonzero;stroke:none"
         id="path116" />
      <path
         d="m 2051.61,2143.31 h 49.4805 v 30.082 H 2051.61 Z"
         style="fill:#111d23;fill-opacity:1;fill-rule:nonzero;stroke:none"
         id="path118" />
      <path
         d="m 1903.31,2023.63 c -46.69,1.46 -81.71,45.2 -95.9,89.7 -14.18,44.5 -14.46,92.52 -28.69,137.01 -18.28,57.12 -62.08,107.48 -119.28,125.52 -57.2,18.04 -126.39,-1.11 -159.98,-50.8 -33.6,-49.69 -21.89,-126.8 29.01,-158.52 l 24.12,-80.66 c 60.52,-104.24 199.27,-155.28 312.92,-115.1 -10.94,13.8 -21.88,27.6 -32.82,41.4 23.5,-7.97 50.84,-3.54 70.62,11.45"
         style="fill:#17282f;fill-opacity:1;fill-rule:nonzero;stroke:none"
         id="path120" />
      <path
         d="m 1783.86,1957.07 c -71.74,0 -143.91,29.59 -194.28,80.6 v 124.21 h -33.13 v -82.4 c -1.32,2.12 -2.6,4.25 -3.86,6.4 l -24.12,80.66 c -31.51,19.64 -48,56.68 -48.02,93.84 -0.01,22.86 6.21,45.76 19.01,64.68 25.26,37.37 70.65,57.46 115.93,57.46 14.94,0 29.87,-2.19 44.05,-6.66 57.2,-18.04 101,-68.4 119.28,-125.52 14.23,-44.49 14.51,-92.51 28.69,-137.01 14.19,-44.5 49.21,-88.24 95.9,-89.7 -13.26,-10.05 -29.92,-15.36 -46.55,-15.36 -8.17,0 -16.33,1.28 -24.07,3.91 v 0 0 c 10.94,-13.8 21.88,-27.6 32.82,-41.4 -26.31,-9.3 -53.94,-13.71 -81.65,-13.71"
         style="fill:#b1baba;fill-opacity:1;fill-rule:nonzero;stroke:none"
         id="path122" />
      <path
         d="m 1556.45,1173.92 h 33.1289 v 987.957 H 1556.45 Z"
         style="fill:#17282f;fill-opacity:1;fill-rule:nonzero;stroke:none"
         id="path124" />
      <path
         d="m 1589.58,1778.22 h -33.13 v 383.66 h 33.13 v -124.21 -259.45"
         style="fill:#6c7a7f;fill-opacity:1;fill-rule:nonzero;stroke:none"
         id="path126" />
      <path
         d="m 1536.29,2161.88 c 0,0 -18.04,7.27 -29.19,23.06 0,0 133.47,-1.65 131.82,0 -1.65,1.66 -11.7,-18.63 -36.36,-23.06 h -66.27"
         style="fill:#406fbf;fill-opacity:1;fill-rule:nonzero;stroke:none"
         id="path128" />
      <path
         d="m 1198.32,1969.79 -24.08,-125.15 c -2.96,-15.33 -17.78,-25.37 -33.12,-22.42 -15.33,2.95 -25.37,17.77 -22.42,33.11 l 24.08,125.15 c 2.96,15.34 17.78,25.38 33.12,22.43 15.33,-2.96 25.37,-17.78 22.42,-33.12 m 86.38,128.11 c -18.92,0.28 -44.17,0.36 -69.23,0.03 -39.77,-0.52 -73.87,-28.52 -82.18,-67.41 l -27.84,-130.34 -34.5,-199.02 c -2.32,-13.36 7.96,-25.57 21.51,-25.57 h 189.2 c 18.78,0 34.01,15.22 34.01,34.01 v 356.8 c 0,17.2 -13.76,31.24 -30.97,31.5"
         style="fill:#406fbf;fill-opacity:1;fill-rule:nonzero;stroke:none"
         id="path130" />
      <path
         d="m 1305.04,1684.9 h -230.47 c -2.51,3.58 -3.96,7.93 -3.95,12.54 0.01,1.22 0.11,2.46 0.33,3.72 l 34.5,199.02 27.84,130.34 c 8.31,38.89 42.41,66.89 82.18,67.41 11.36,0.15 22.76,0.22 33.6,0.22 13.06,0 25.29,-0.1 35.63,-0.25 17.21,-0.26 30.97,-14.3 30.97,-31.5 v -71.24 h -78.42 l -38.42,-246.13 h 116.84 v -39.43 c 0,-9.73 -4.08,-18.5 -10.63,-24.7 m -186.86,165.08 c -0.01,-13.3 9.41,-25.16 22.94,-27.76 1.81,-0.35 3.6,-0.52 5.38,-0.52 13.28,0 25.13,9.41 27.74,22.94 l 24.08,125.15 c 0.35,1.8 0.51,3.59 0.51,5.36 0.02,13.29 -9.4,25.15 -22.93,27.76 -1.81,0.34 -3.61,0.51 -5.38,0.51 -13.28,0 -25.13,-9.41 -27.74,-22.94 l -24.08,-125.15 c -0.35,-1.8 -0.51,-3.59 -0.52,-5.35"
         style="fill:#6d97d6;fill-opacity:1;fill-rule:nonzero;stroke:none"
         id="path132" />
      <path
         d="m 1295.71,2098.15 h -88.42 v 64.43 h 88.42 v -64.43"
         style="fill:#17282f;fill-opacity:1;fill-rule:nonzero;stroke:none"
         id="path134" />
      <path
         d="m 1451.51,237.941 c -15.96,-7.921 0,1503.379 0,1503.379 h 835.47 c 0,0 -143.68,-1516.761 -159.64,-1503.379 -15.97,13.368 -675.83,0 -675.83,0"
         style="fill:#406fbf;fill-opacity:1;fill-rule:nonzero;stroke:none"
         id="path136" />
      <path
         d="m 2264.09,1502.53 -781.47,102.94 h 262.26 l 528.39,-7.66 -9.18,-95.28"
         style="fill:#3563b7;fill-opacity:1;fill-rule:nonzero;stroke:none"
         id="path138" />
      <path
         d="M 816.633,271.309 766.797,813.141 H 1247.04 L 1193.25,273.352 816.633,271.309"
         style="fill:#17282f;fill-opacity:1;fill-rule:nonzero;stroke:none"
         id="path140" />
      <path
         d="m 816.633,271.309 -45.36,493.152 0.52,-5.621 h 469.837 l -0.08,-0.719 -48.3,-484.769 -376.617,-2.043 m 426.237,500.05 v 12.539 h 1.25 l -1.25,-12.539"
         style="fill:#57666b;fill-opacity:1;fill-rule:nonzero;stroke:none"
         id="path142" />
      <path
         d="m 747.539,783.898 h 516.883 v 34.0898 H 747.539 Z"
         style="fill:#17282f;fill-opacity:1;fill-rule:nonzero;stroke:none"
         id="path144" />
      <path
         d="M 2238.62,199.43 H 747.539 v 77.011 H 2238.62 V 199.43"
         style="fill:#17282f;fill-opacity:1;fill-rule:nonzero;stroke:none"
         id="path146" />
      <path
         d="m 1392.41,276.441 h -96.03 V 1685.7 h 96.03 V 276.441"
         style="fill:#17282f;fill-opacity:1;fill-rule:nonzero;stroke:none"
         id="path148" />
      <path
         d="m 747.539,1605.47 h 1539.44 v 79.4297 H 747.539 Z"
         style="fill:#17282f;fill-opacity:1;fill-rule:nonzero;stroke:none"
         id="path150" />
      <path
         d="m 1088.37,185.219 c 0,-76.43 -61.96,-138.3909 -138.393,-138.3909 -76.434,0 -138.395,61.9609 -138.395,138.3909 0,76.441 61.961,138.402 138.395,138.402 76.433,0 138.393,-61.961 138.393,-138.402"
         style="fill:#17282f;fill-opacity:1;fill-rule:nonzero;stroke:none"
         id="path152" />
      <path
         d="m 949.977,255.059 c 38.218,0 69.203,-30.981 69.203,-69.188 0,-38.223 -30.985,-69.203 -69.203,-69.203 -38.215,0 -69.196,30.98 -69.196,69.203 0,38.207 30.981,69.188 69.196,69.188"
         style="fill:#406fbf;fill-opacity:1;fill-rule:nonzero;stroke:none"
         id="path154" />
      <path
         d="m 2176.75,230.789 c 0,-101.598 -82.36,-183.9609 -183.96,-183.9609 -101.6,0 -183.96,82.3629 -183.96,183.9609 0,101.59 82.36,183.949 183.96,183.949 101.6,0 183.96,-82.359 183.96,-183.949"
         style="fill:#17282f;fill-opacity:1;fill-rule:nonzero;stroke:none"
         id="path156" />
      <path
         d="m 1992.79,323.621 c 50.8,0 91.98,-41.18 91.98,-91.98 0,-50.801 -41.18,-91.981 -91.98,-91.981 -50.8,0 -91.98,41.18 -91.98,91.981 0,50.8 41.18,91.98 91.98,91.98"
         style="fill:#406fbf;fill-opacity:1;fill-rule:nonzero;stroke:none"
         id="path158" />
      <path
         d="m 1059.4,2131.93 h -20.25 v 56.55 h 20.25 v -56.55"
         style="fill:#17282f;fill-opacity:1;fill-rule:nonzero;stroke:none"
         id="path160" />
      <path
         d="m 1072.14,1887 c -12.44,38.87 -85.515,76.19 -82.406,104.18 3.11,27.99 2.684,65.31 2.684,65.31 h -72.652 c -6.223,-6.22 -68.418,-129.06 -45.094,-273.67 l 19.941,-96.4 h 146.437 c 0,0 43.53,161.71 31.09,200.58"
         style="fill:#406fbf;fill-opacity:1;fill-rule:nonzero;stroke:none"
         id="path162" />
      <path
         d="m 996.941,2059.72 h -86.378 v 35.94 h 86.378 v -35.94"
         style="fill:#17282f;fill-opacity:1;fill-rule:nonzero;stroke:none"
         id="path164" />
      <path
         d="m 850.109,2113.39 c 0,0 9.813,64.05 56.297,67.67 46.485,3.61 132.744,0 132.744,0 v -43.39 h -42.209 v -42.01 h -82.785 v 31.16 c 0,0 -20.66,14.47 -64.047,-13.43"
         style="fill:#17282f;fill-opacity:1;fill-rule:nonzero;stroke:none"
         id="path166" />
      <path
         d="m 996.941,2111.76 c 0,0 6.639,-36.1 60.369,-39.97 l 2.09,9.03 c 0,0 -40.98,12.69 -42.06,56.85 h -20.399 v -25.91"
         style="fill:#17282f;fill-opacity:1;fill-rule:nonzero;stroke:none"
         id="path168" />
      <path
         d="m 1411.67,1681.15 h 900.148 v 97.0703 H 1411.67 Z"
         style="fill:#406fbf;fill-opacity:1;fill-rule:nonzero;stroke:none"
         id="path170" />
      <path
         d="m 2311.82,1681.15 h -900.15 v 97.07 h 900.15 v -97.07"
         style="fill:#2d5bb2;fill-opacity:1;fill-rule:nonzero;stroke:none"
         id="path172" />
      <path
         d="m 1242.87,759.32 h -1.2 l 1.2,12.039 V 759.32"
         style="fill:#c3c5c2;fill-opacity:1;fill-rule:nonzero;stroke:none"
         id="path174" />
      <path
         d="m 1242.87,758.84 h -1.24 l 0.04,0.48 h 1.2 v -0.48"
         style="fill:#a7aaa9;fill-opacity:1;fill-rule:nonzero;stroke:none"
         id="path176" />
      <path
         d="m 771.273,764.461 -1.789,19.437 h 0.004 l 1.785,-19.437"
         style="fill:#a7aaa9;fill-opacity:1;fill-rule:nonzero;stroke:none"
         id="path178" />
      <path
         d="M 1241.63,758.84 H 771.793 l -0.52,5.621 -1.785,19.437 h 473.382 v -12.539 l -1.24,-12.519"
         style="fill:#424f54;fill-opacity:1;fill-rule:nonzero;stroke:none"
         id="path180" />
      <path
         d="m 1315.67,1749.03 h -116.84 l 38.42,246.13 h 78.42 v -246.13"
         style="fill:#ccdef4;fill-opacity:1;fill-rule:nonzero;stroke:none"
         id="path182" />
      <path
         d="m 747.539,783.898 h 516.883 v 34.0898 H 747.539 Z"
         style="fill:#849193;fill-opacity:1;fill-rule:nonzero;stroke:none"
         id="path184" />
      <path
         d="m 764.641,799.699 c 0.14,-0.5 16.375,-63.898 75.867,-127.437 59.453,-63.551 162.422,-126.903 334.322,-126.844 14.96,0 30.45,0.48 46.48,1.473 l -0.62,9.98 c -15.83,-0.98 -31.11,-1.453 -45.86,-1.453 -169.44,0.062 -269.142,61.973 -327.025,123.684 -28.918,30.867 -47.325,61.75 -58.481,84.867 -5.578,11.562 -9.344,21.179 -11.707,27.871 -1.179,3.351 -2.012,5.969 -2.543,7.73 l -0.578,1.989 -0.164,0.621 -9.691,-2.481 v 0"
         style="fill:#17282f;fill-opacity:1;fill-rule:nonzero;stroke:none"
         id="path186" />
      <path
         d="m 5394.95,2417.29 -41.92,-171.25 -351.83,-208.55 25.61,-68.43 c 0,0 399.41,104.74 426.02,141.02 26.62,36.28 98.91,276.13 98.91,276.13 l -156.79,31.08"
         style="fill:#f8a460;fill-opacity:1;fill-rule:nonzero;stroke:none"
         id="path188" />
      <path
         d="m 5519.25,2282.99 -18.21,32.36 -122.97,32.97 3.78,15.46 1.25,5.09 112.59,-36.74 v 0 l 27.33,-9.45 3.5,-17.23 -7.27,-22.46"
         style="fill:#a46f44;fill-opacity:1;fill-rule:nonzero;stroke:none"
         id="path190" />
      <path
         d="m 5083.09,2065.46 c 0,0 -17.88,28.9 -45.31,35.02 -27.42,6.12 -47.69,18.31 -68.39,21.45 -20.7,3.14 -2.33,-18.33 9.76,-27.78 12.08,-9.45 25.69,-20.28 17.12,-28.2 -8.56,-7.94 -106.38,-30.46 -117,-42.81 -10.62,-12.34 6.34,-13.65 6.34,-13.65 0,0 -23.61,-6.11 -23.74,-16.12 -0.03,-2.6 4.11,-8.7 15.31,-7.6 25.18,2.47 77.78,10.38 77.78,10.38 -3.03,-0.4 -67.25,-14.79 -76.59,-18.21 -12.2,-4.46 -15.68,-12.78 -12.86,-19.77 2.4,-5.95 32.05,-2.93 56.32,0.09 16.32,2.03 30.21,4.06 31.75,3.37 0,0 -46.48,-7.17 -51.2,-20.18 -4.71,-13.01 24.79,-10.1 50.32,-2.58 23.4,6.89 71.11,14.28 94.22,23.59 28.48,11.47 45.02,25.57 46.27,54.33 1.25,28.76 -10.1,48.67 -10.1,48.67"
         style="fill:#406fbf;fill-opacity:1;fill-rule:nonzero;stroke:none"
         id="path192" />
      <path
         d="m 5055.74,2076.96 84.04,50.04 39.5,-126.61 -123.54,-26.79 16.23,55.95 -19.09,46.75 2.86,0.66"
         style="fill:#406fbf;fill-opacity:1;fill-rule:nonzero;stroke:none"
         id="path194" />
      <path
         d="m 5548.25,356.828 -77.79,-216.457 -72.66,22.688 22.74,227.902 127.71,-34.133"
         style="fill:#f8a460;fill-opacity:1;fill-rule:nonzero;stroke:none"
         id="path196" />
      <path
         d="m 5481.98,76.4883 -0.01,-0.0078 c -1.66,-15.8594 -2.81,-26.7696 -2.81,-26.7696 l -65.68,-0.1523 c 0,0 -13.3,7.0195 -21.09,6.0625 -7.77,-0.9727 -34.81,-6.1797 -34.81,-6.1797 l -174.41,-0.4023 c 1.38,7.3125 3.09,13.8203 5.04,19.6015 2.37,7.0391 5.13,13.0078 8.21,18.0586 10.76,17.6598 25.49,23.9688 41.52,25.0198 24.42,1.59 101.15,53.062 101.15,53.062 0,0 27.86,9.809 29.31,39.489 0.55,11.128 16.94,24.75 24.76,25.89 15.94,2.34 24.84,-7.738 27.2,-23.68 l 2.71,-18.519 36.83,5.828 c 0,0 37.43,18.941 35.65,0.621 L 5481.98,76.4883"
         style="fill:#17282f;fill-opacity:1;fill-rule:nonzero;stroke:none"
         id="path198" />
      <path
         d="m 5183.18,49.0391 v 0 h 0.39 -0.39 m 230.3,0.5195 c 0,0 -11.65,6.1523 -19.54,6.1523 v 0 c 7.89,0 19.54,-6.1523 19.54,-6.1523 v 0 m -25.04,5.4805 c 0.02,0.0117 0.04,0.0117 0.06,0.0117 -0.02,0 -0.04,0 -0.06,-0.0117 m 0.16,0.0312 c 1.38,0.2188 2.59,0.3985 3.54,0.5195 -0.95,-0.121 -2.16,-0.3007 -3.54,-0.5195 m 3.62,0.5313 c 0.05,0.0078 0.11,0.0195 0.17,0.0195 0.49,0.0586 0.99,0.0898 1.52,0.0898 -0.52,0 -1.04,-0.0312 -1.52,-0.0898 -0.06,0 -0.12,-0.0117 -0.17,-0.0195"
         style="fill:#f6f6f4;fill-opacity:1;fill-rule:nonzero;stroke:none"
         id="path200" />
      <path
         d="m 5183.18,49.0391 c 1.37,7.3125 3.08,13.8203 5.03,19.6015 l 248.35,6.6289 V 49.6094 l -23.08,-0.0508 c 0,0 -11.65,6.1523 -19.54,6.1523 v 0 0 c -0.01,0 -0.02,0 -0.03,0 -0.53,0 -1.03,-0.0312 -1.52,-0.0898 -0.06,0 -0.12,-0.0117 -0.17,-0.0195 -0.03,0 -0.06,0 -0.08,-0.0118 -0.95,-0.121 -2.16,-0.3007 -3.54,-0.5195 -0.03,-0.0117 -0.06,-0.0117 -0.1,-0.0195 -0.02,0 -0.04,0 -0.06,-0.0117 -10.45,-1.6602 -30.86,-5.5977 -30.86,-5.5977 l -174.01,-0.4023 h -0.39"
         style="fill:#405158;fill-opacity:1;fill-rule:nonzero;stroke:none"
         id="path202" />
      <path
         d="m 5300.87,145.648 c 0.81,0.801 2.06,0.883 3,0.262 4.33,-2.859 7.97,-6.91 10.45,-11.98 1.31,-2.68 -2.6,-5.282 -3.92,-2.571 -2.2,4.512 -5.38,8.09 -9.17,10.59 -1.26,0.84 -1.47,2.602 -0.39,3.672 l 0.03,0.027"
         style="fill:#406fbf;fill-opacity:1;fill-rule:nonzero;stroke:none"
         id="path204" />
      <path
         d="m 5314.73,153.859 c 0.81,0.789 2.05,0.879 3,0.25 4.33,-2.859 7.97,-6.898 10.45,-11.98 1.31,-2.68 -2.6,-5.27 -3.92,-2.57 -2.2,4.511 -5.39,8.089 -9.17,10.601 -1.26,0.84 -1.48,2.602 -0.4,3.66 l 0.04,0.039"
         style="fill:#406fbf;fill-opacity:1;fill-rule:nonzero;stroke:none"
         id="path206" />
      <path
         d="m 5329.02,161.52 c 0.81,0.789 2.06,0.878 3,0.261 4.33,-2.871 7.97,-6.91 10.45,-11.992 1.31,-2.668 -2.6,-5.269 -3.92,-2.57 -2.2,4.511 -5.39,8.09 -9.17,10.601 -1.26,0.84 -1.47,2.598 -0.39,3.66 l 0.03,0.04"
         style="fill:#406fbf;fill-opacity:1;fill-rule:nonzero;stroke:none"
         id="path208" />
      <path
         d="m 6050.18,380.871 34.3,-234.41 76.53,-3.109 22.55,226.519 -133.38,11"
         style="fill:#f8a460;fill-opacity:1;fill-rule:nonzero;stroke:none"
         id="path210" />
      <path
         d="m 6227.17,38.8789 -171.1,-1.6797 c 0,0 -3.8,7.1524 0.28,26.3203 0.62,2.9922 1.43,6.2813 2.5,9.8594 l 0.16,0.5313 c 1.54,5.3086 3.32,11.8398 5.2,18.8906 7.56,28.7302 16.41,66.2382 16.41,66.2382 0,0 27.87,61.231 61.32,46.332 29.35,-13.062 22.8,-51.32 22.8,-51.32 0,0 3.08,-22.403 25.43,-41.961 13.82,-12.09 27.53,-21.4103 34.23,-36.5509 1.26,-2.8282 2.25,-5.8399 2.98,-9.1094 l 0.23,-1.2188 c 1.43,-7.3125 1.43,-15.9023 -0.44,-26.332"
         style="fill:#17282f;fill-opacity:1;fill-rule:nonzero;stroke:none"
         id="path212" />
      <path
         d="m 6056.07,37.1992 c 0,0 -1.62,3.0508 -1.61,10.4805 0,3.9687 0.47,9.1797 1.89,15.8398 l 171.26,1.6914 c 0.67,-3.4296 1.03,-7.1406 1.02,-11.1796 0,-4.5899 -0.46,-9.6133 -1.46,-15.1524 l -171.1,-1.6797"
         style="fill:#405158;fill-opacity:1;fill-rule:nonzero;stroke:none"
         id="path214" />
      <path
         d="m 6157.94,144.391 c -9.69,7.398 -22.31,6.3 -30.88,-2.223 -2.31,-2.297 -5.92,1.23 -3.61,3.531 10.7,10.641 26.12,11.379 38.03,2.289 2.58,-1.968 -0.98,-5.558 -3.54,-3.597"
         style="fill:#406fbf;fill-opacity:1;fill-rule:nonzero;stroke:none"
         id="path216" />
      <path
         d="m 6162.93,128.449 c -9.7,7.41 -22.31,6.313 -30.89,-2.219 -2.3,-2.289 -5.91,1.239 -3.6,3.54 10.7,10.64 26.12,11.378 38.03,2.289 2.58,-1.969 -0.98,-5.559 -3.54,-3.61"
         style="fill:#406fbf;fill-opacity:1;fill-rule:nonzero;stroke:none"
         id="path218" />
      <path
         d="m 6167.92,113.809 c -9.69,7.402 -22.31,6.312 -30.88,-2.219 -2.31,-2.301 -5.92,1.238 -3.61,3.531 10.7,10.649 26.12,11.391 38.03,2.301 2.58,-1.981 -0.98,-5.563 -3.54,-3.613"
         style="fill:#406fbf;fill-opacity:1;fill-rule:nonzero;stroke:none"
         id="path220" />
      <path
         d="m 6228.2,1831.88 -358.21,-6.55 -224.88,4.61 c 0,0 -151.24,-682.19 -163.38,-810.5 C 5469.6,891.129 5361.08,215.059 5361.08,215.059 l 175.2,-36.668 c 0,0 191.68,723.609 205.33,793.097 11.9,60.572 146.21,449.422 180.52,548.302 3.74,-20.15 7.58,-40.38 11.49,-60.45 9.81,-90.75 41.27,-380.12 54.78,-487.789 0,0 33.11,-615.442 66.27,-793.93 l 164.52,1.328 c 19.23,254.039 24.4,1145.751 24.4,1145.751 l -0.02,0.02 c 10.28,193.76 -15.37,507.16 -15.37,507.16"
         style="fill:#17282f;fill-opacity:1;fill-rule:nonzero;stroke:none"
         id="path222" />
      <path
         d="m 6244.15,1571.2 c -0.07,0 -0.15,0 -0.24,0.01 -0.24,0.02 -0.48,0.03 -0.72,0.05 -0.07,1.98 -0.15,3.96 -0.22,5.93 0.3,-0.02 0.59,-0.04 0.88,-0.06 3.71,-0.25 3.86,-5.93 0.3,-5.93"
         style="fill:#6f7475;fill-opacity:1;fill-rule:nonzero;stroke:none"
         id="path224" />
      <path
         d="m 6054.67,177.621 c -16.89,90.899 -33.76,295.149 -46.26,473.699 37.01,1.45 67.35,3.059 86.17,4.149 15.29,-35.36 33.05,-69.578 53.42,-102.11 23.77,-37.968 51.29,-74.168 82.62,-106.441 -3.1,-111.59 -6.87,-207.707 -11.43,-267.969 l -55.64,-0.449 -72.16,-0.582 -11.5,-0.098 -25.22,-0.199 M 6234,585.891 c -9.37,14.199 -18.17,28.769 -26.42,43.64 -6.98,12.571 -13.57,25.36 -19.78,38.321 -2.61,5.429 -5.14,10.878 -7.62,16.367 -1.48,3.301 -2.91,6.633 -4.39,9.929 -0.42,0.981 -0.74,1.743 -0.98,2.293 -0.5,1.219 -1.01,2.45 -1.51,3.668 -22.47,55.211 -38.88,112.84 -49.95,171.391 -2.47,13.102 -4.68,26.25 -6.62,39.449 -0.2,1.321 -1.03,7.422 -1.05,7.422 0,0 0,-0.019 0.01,-0.062 -0.25,1.929 -0.48,3.851 -0.72,5.781 -0.32,2.691 -0.64,5.379 -0.94,8.058 -0.38,102.452 -0.64,223.972 -0.46,347.252 0.53,8.1 1.07,16.21 1.62,24.31 5.47,80.02 11.94,160 14.83,240.17 1.07,29.83 1.89,59.7 1.61,89.52 25.45,-34.96 65.56,-58.74 111.56,-62.14 1.68,-46.59 2.81,-95.06 2.81,-141.48 0,-19.56 -0.2,-38.74 -0.64,-57.26 -0.02,-0.84 -0.04,-1.67 -0.07,-2.5 -0.39,-15.65 -0.96,-30.81 -1.72,-45.3 v 0 0 l 0.02,-0.02 c 0,0 -1.6,-276.46 -6.34,-565.38 -0.01,-0.41 -0.02,-0.789 -0.02,-1.199 -0.95,-57.609 -2.02,-115.75 -3.23,-172.23 m 8.97,991.299 c -47.08,3.55 -87.6,29.52 -111.49,66.91 -0.66,35.25 -3,70.42 -8.42,105.38 -1.38,8.91 -3,17.87 -4.9,26.84 38.15,14.78 75.15,33.16 110.01,55.56 h 0.03 c 0,0 9.69,-118.43 14.77,-254.69"
         style="fill:#57666b;fill-opacity:1;fill-rule:nonzero;stroke:none"
         id="path226" />
      <path
         d="m 6243.19,1571.26 c -46,3.4 -86.11,27.18 -111.56,62.14 -0.03,3.57 -0.08,7.14 -0.15,10.7 23.89,-37.39 64.41,-63.36 111.49,-66.91 0.07,-1.97 0.15,-3.95 0.22,-5.93"
         style="fill:#4a5258;fill-opacity:1;fill-rule:nonzero;stroke:none"
         id="path228" />
      <path
         d="m 5536.28,178.391 -51.18,10.718 v 857.351 c 7.74,53.67 25.54,147.02 46.58,251.03 h 19.05 c -24.87,-292.01 -37.98,-591.9 13.86,-618.541 20.58,-10.57 55.18,-17.789 97.31,-22.57 -57.83,-222.07 -125.62,-477.988 -125.62,-477.988 m -99.72,20.879 -15.63,3.269 -49.5,10.359 -10.35,2.161 c 0,0 41.05,255.722 75.48,482.472 V 199.27 m 123.03,1197.04 h -7.63 c 4.68,22.5 9.41,45.11 14.12,67.49 -2.18,-22.14 -4.36,-44.7 -6.49,-67.49"
         style="fill:#57666b;fill-opacity:1;fill-rule:nonzero;stroke:none"
         id="path230" />
      <path
         d="m 5509.65,2661.42 c -70.86,-41.6 -141.42,-287.7 -141.42,-287.7 l 215.94,-70.46 68.76,144.27 -143.28,213.89"
         style="fill:#406fbf;fill-opacity:1;fill-rule:nonzero;stroke:none"
         id="path232" />
      <path
         d="m 5542.29,2316.01 -11.17,3.86 c 0.07,0.21 0.13,0.42 0.2,0.64 l 10.83,-3.54 c 0.05,-0.31 0.09,-0.65 0.14,-0.96"
         style="fill:#a0afc8;fill-opacity:1;fill-rule:nonzero;stroke:none"
         id="path234" />
      <path
         d="m 5531.12,2319.87 -8.1,2.81 -0.12,0.57 8.42,-2.74 c -0.07,-0.22 -0.13,-0.43 -0.2,-0.64"
         style="fill:#c1824e;fill-opacity:1;fill-rule:nonzero;stroke:none"
         id="path236" />
      <path
         d="m 5523.02,2322.68 -27.33,9.45 v 0 l 27.21,-8.88 0.12,-0.57"
         style="fill:#7e5536;fill-opacity:1;fill-rule:nonzero;stroke:none"
         id="path238" />
      <path
         d="m 5542.15,2316.97 -10.83,3.54 -8.42,2.74 -27.21,8.88 c 20.06,53.77 10.09,252.16 10.09,252.16 0,0 3.09,-8.85 7.91,-22.12 6.51,-78.06 16.91,-160.98 28.46,-245.2"
         style="fill:#3563b7;fill-opacity:1;fill-rule:nonzero;stroke:none"
         id="path240" />
      <path
         d="m 5962.15,2751.19 c -40.45,-30.2 -85.95,-99.17 -49.84,-174.37 25.67,-53.45 100.78,-157.3 100.78,-157.3 l 188.34,105.96 c 0,0 -168.48,265.05 -239.28,225.71"
         style="fill:#406fbf;fill-opacity:1;fill-rule:nonzero;stroke:none"
         id="path242" />
      <path
         d="m 5548.79,2679.47 c 50.61,14.59 204.12,71.23 422.99,75.7 l 115.94,-212.52 108.81,-529.36 c 0,0 21.41,-60.64 39.31,-176.4 -200.35,-133.34 -474.56,-130.41 -633.46,-74.41 -6.19,68.25 4.46,55.03 -10.43,186.57 -26.24,231.8 -76.4,497.72 -84.24,709.68 -0.12,5.25 36.03,19.29 41.08,20.74"
         style="fill:#406fbf;fill-opacity:1;fill-rule:nonzero;stroke:none"
         id="path244" />
      <path
         d="m 5569.58,2437.64 c -4.28,-19.33 27.78,-426.74 27.78,-426.74 0,0 4.99,-123.22 10.34,-142.54 5.34,-19.31 -145.45,-1136.829 -43.11,-1189.411 102.34,-52.57 550.95,-22.187 550.95,-22.187 0,0 -9.93,1250.528 14.18,1320.398 24.11,69.87 66.69,99.25 66.69,99.25 l -29.36,149.06 -71.38,-3.74 c 0,0 -93.7,312.13 -134.94,296.41 -41.24,-15.71 -391.15,-80.5 -391.15,-80.5"
         style="fill:#17282f;fill-opacity:1;fill-rule:nonzero;stroke:none"
         id="path246" />
      <path
         d="m 5588.73,2423.27 c 8.86,-1.12 17.73,-2.25 26.6,-3.38 l -0.09,0.28 -0.16,0.7 c -0.09,0.01 0.33,-3.97 0.19,-1.35 -0.12,2.41 -0.32,4.8 -0.41,7.21 -0.28,7.47 -0.26,14.95 -0.24,22.41 0.08,22.67 0.63,45.33 1.23,67.99 1.29,49.04 3.06,98.08 4.97,147.1 0.43,11 0.87,22 1.33,32.99 0.81,19.31 -29.2,19.27 -30,0 -3.66,-87.44 -8.79,-175.36 -7.47,-262.88 0.1,-6.81 -0.22,-14.35 1.4,-21.02 3.37,-13.87 20.53,-17.32 28.55,-5.19 10.68,16.15 -15.29,31.19 -25.9,15.14"
         style="fill:#17282f;fill-opacity:1;fill-rule:nonzero;stroke:none"
         id="path248" />
      <path
         d="m 5968.91,2462.81 c -29.97,96.79 -59.95,193.58 -89.92,290.36 -5.69,18.39 -34.66,10.54 -28.93,-7.97 29.98,-96.79 59.95,-193.58 89.92,-290.36 5.7,-18.39 34.66,-10.54 28.93,7.97"
         style="fill:#17282f;fill-opacity:1;fill-rule:nonzero;stroke:none"
         id="path250" />
      <path
         d="m 5854.97,2286.81 -25.34,71.06 44.1,15.73 0.22,-0.38 c 1.76,-3.08 5,-4.85 8.36,-4.85 1.29,0 2.6,0.26 3.86,0.81 3.7,1.53 6.07,5.14 6.07,9.09 0,0.3 -0.01,0.6 -0.04,0.91 l -0.1,0.97 41.34,14.74 25.34,-71.06 -103.81,-37.02"
         style="fill:#9ba6a6;fill-opacity:1;fill-rule:nonzero;stroke:none"
         id="path252" />
      <path
         d="m 5854.87,2405.86 19.08,-32.64 c 2.44,-4.27 7.71,-6.01 12.22,-4.04 3.98,1.65 6.42,5.7 6.03,10 l -4.17,42.17 -33.16,-15.49"
         style="fill:#406fbf;fill-opacity:1;fill-rule:nonzero;stroke:none"
         id="path254" />
      <path
         d="m 5882.31,2368.37 c -3.36,0 -6.6,1.77 -8.36,4.85 l -19.08,32.64 33.16,15.49 4.17,-42.17 c 0.03,-0.31 0.04,-0.61 0.04,-0.91 0,-3.95 -2.37,-7.56 -6.07,-9.09 -1.26,-0.55 -2.57,-0.81 -3.86,-0.81"
         style="fill:#2251aa;fill-opacity:1;fill-rule:nonzero;stroke:none"
         id="path256" />
      <path
         d="m 5790.7,1849.01 c 4.34,4.07 8.75,8.07 13.21,12.06 0.86,0.77 1.53,1.38 2.03,1.85 0.49,0.34 1.1,0.76 1.84,1.28 3.35,2.37 6.68,4.75 10.11,7 0.52,0.33 1.03,0.67 1.54,1 9.09,1.99 18.15,4.09 27.18,6.31 22.22,5.48 44.61,11.83 65.44,21.15 1.06,-0.05 2.1,-0.11 2.98,-0.15 0.66,-0.11 1.59,-0.26 2.57,-0.4 2.11,-0.32 4.39,-0.64 4.4,-0.64 v 0 c 3.69,-0.77 7.35,-1.7 10.96,-2.76 3.03,-0.89 5.98,-2.03 9,-2.95 0.31,-0.1 0.59,-0.18 0.85,-0.26 5.38,-2.7 10.71,-5.37 15.83,-8.56 2.55,-1.59 4.97,-3.34 7.48,-4.99 0.1,-0.07 0.2,-0.14 0.3,-0.21 0.37,-0.32 0.74,-0.63 1.11,-0.94 -9.25,-5.57 -19.02,-9.75 -29.17,-12.04 -54.97,-12.44 -106.8,-16.32 -147.66,-16.75 m 237.88,93.73 c -10.98,9.34 -22.8,17.52 -35.33,24.32 3.55,4.47 7.04,8.97 10.53,13.47 26.79,34.59 53.59,69.17 80.39,103.76 0,0 -22.57,-73.92 -42.86,-117.66 -3.65,-7.86 -7.91,-15.92 -12.73,-23.89"
         style="fill:#111d23;fill-opacity:1;fill-rule:nonzero;stroke:none"
         id="path258" />
      <path
         d="m 6191.63,2519.97 c 0,0 135.89,-204.51 117.17,-258.78 -18.71,-54.27 -345.05,-327.28 -345.05,-327.28 l -46.53,75.88 221.29,283.21 -88.21,147.45 141.33,79.52"
         style="fill:#f8a460;fill-opacity:1;fill-rule:nonzero;stroke:none"
         id="path260" />
      <path
         d="m 5789.26,2743.16 c 0,0 -26.36,57.09 -22.77,170.97 l -6.29,1.27 c 0.44,15.91 1.44,30.77 2.66,43.73 l -0.03,0.49 -122.06,-126.76 c 12.08,-33.03 16.69,-101.65 16.51,-131.17 0,0 -5.48,-54.79 61.73,-39.92 49.11,10.87 70.25,81.39 70.25,81.39"
         style="fill:#f8a460;fill-opacity:1;fill-rule:nonzero;stroke:none"
         id="path262" />
      <path
         d="m 5655.67,2742.82 c 0,0 0,0.02 -0.01,0.06 0.01,-0.02 0.01,-0.04 0.01,-0.06 v 0"
         style="fill:#a0afc8;fill-opacity:1;fill-rule:nonzero;stroke:none"
         id="path264" />
      <path
         d="m 5655.67,2742.82 c 0,0.02 0,0.04 -0.01,0.06 -0.05,1.05 -0.9,16.13 -2.63,28.69 28.75,5.3 55.96,21.34 75.89,49.43 -2.14,-27.35 -18.36,-61.56 -73.25,-78.18"
         style="fill:#c1824e;fill-opacity:1;fill-rule:nonzero;stroke:none"
         id="path266" />
      <path
         d="m 5476.38,3057.75 c -8.48,-37.91 4.36,-113.25 53.85,-84.18 49.5,29.05 -39.28,149.36 -53.85,84.18"
         style="fill:#17282f;fill-opacity:1;fill-rule:nonzero;stroke:none"
         id="path268" />
      <path
         d="m 5745.91,3030.35 c 13.76,-94.44 23.43,-147.42 -13.84,-204.71 -56.06,-86.17 -177.36,-68.06 -219.17,20.63 -37.64,79.83 -53.82,220.85 30.06,276.2 82.63,54.53 189.19,2.32 202.95,-92.12"
         style="fill:#f8a460;fill-opacity:1;fill-rule:nonzero;stroke:none"
         id="path270" />
      <path
         d="m 5738.14,3143.31 c -23.55,48.71 -156.27,23.97 -186.75,-9.8 -4.56,-5.05 79.72,-27.42 74.75,-26.7 l 38.5,-4.91 c 5.28,2.38 17.49,-1.81 26.72,-17.82 0,0 6.93,-101.59 56.09,-134.5 36.6,27.15 44.25,46.01 47.46,81.89 4.79,53.46 -29.81,87.77 -56.77,111.84"
         style="fill:#17282f;fill-opacity:1;fill-rule:nonzero;stroke:none"
         id="path272" />
      <path
         d="m 5798.98,2960.32 c -2.43,-25.57 -16.52,-47.53 -33.09,-60.58 -24.94,-19.64 -49.86,-0.24 -53.37,29.69 -3.15,26.94 6.02,69.62 36.07,77.55 29.6,7.82 53.18,-17.43 50.39,-46.66"
         style="fill:#f8a460;fill-opacity:1;fill-rule:nonzero;stroke:none"
         id="path274" />
      <path
         d="m 5618.08,2975.53 c 1.99,-9.54 -1.46,-18.28 -7.72,-19.53 -6.26,-1.24 -12.95,5.48 -14.95,15.03 -1.99,9.54 1.46,18.28 7.72,19.53 6.26,1.24 12.95,-5.48 14.95,-15.03"
         style="fill:#17282f;fill-opacity:1;fill-rule:nonzero;stroke:none"
         id="path276" />
      <path
         d="m 5524.89,2954.11 c 2,-9.54 -1.46,-18.28 -7.72,-19.53 -6.26,-1.24 -12.95,5.48 -14.95,15.03 -1.99,9.54 1.46,18.28 7.72,19.52 6.26,1.25 12.95,-5.48 14.95,-15.02"
         style="fill:#17282f;fill-opacity:1;fill-rule:nonzero;stroke:none"
         id="path278" />
      <path
         d="m 5554.23,2965.77 c 0,0 -20.3,-53.73 -25.94,-75.06 15.79,-9.22 37.51,1.09 37.51,1.09 l -11.57,73.97"
         style="fill:#ef7937;fill-opacity:1;fill-rule:nonzero;stroke:none"
         id="path280" />
      <path
         d="m 5632,3025.38 c -1.31,-0.89 -3.07,-1.07 -4.61,-0.31 -18.34,9.01 -32.95,0.69 -33.09,0.6 -2.18,-1.27 -4.99,-0.55 -6.28,1.61 -1.29,2.16 -0.57,4.94 1.59,6.22 0.77,0.45 19.06,10.88 41.82,-0.3 2.27,-1.11 3.21,-3.84 2.09,-6.08 l -1.52,-1.74"
         style="fill:#17282f;fill-opacity:1;fill-rule:nonzero;stroke:none"
         id="path282" />
      <path
         d="m 5735.56,2942.32 c -1.28,0 -2.37,0.97 -2.49,2.27 -0.14,1.53 -0.21,3.06 -0.21,4.6 0,7.13 1.53,14.25 4.49,20.76 3.01,6.58 7.75,12.87 14.67,16.21 2.9,1.39 6.12,2.11 9.34,2.11 4.58,0 9.22,-1.48 12.68,-4.83 0.99,-0.96 1.01,-2.54 0.05,-3.53 -0.49,-0.51 -1.14,-0.76 -1.79,-0.76 -0.63,0 -1.26,0.23 -1.75,0.71 -2.33,2.27 -5.66,3.41 -9.19,3.41 -0.01,0 -0.01,0 -0.02,0 -2.45,0 -4.97,-0.56 -7.16,-1.62 -5.44,-2.59 -9.59,-7.88 -12.28,-13.78 -2.66,-5.83 -4.04,-12.27 -4.04,-18.68 0,-1.38 0.06,-2.76 0.19,-4.14 0.13,-1.37 -0.88,-2.59 -2.26,-2.72 -0.07,-0.01 -0.15,-0.01 -0.23,-0.01"
         style="fill:#c1824e;fill-opacity:1;fill-rule:nonzero;stroke:none"
         id="path284" />
      <path
         d="m 5656.27,2913.65 -72.79,-48.59 c 7.07,-7.48 14.25,-15.06 23.01,-20.46 8.76,-5.4 18.24,-6.14 28.26,-3.78 14.34,3.39 25.54,15.11 27.99,29.63 2.44,14.53 -1.34,29.39 -6.47,43.2"
         style="fill:#040606;fill-opacity:1;fill-rule:nonzero;stroke:none"
         id="path286" />
      <path
         d="m 5589.34,2868.97 c 0,0 8.14,-8.56 13.55,-8.71 5.4,-0.15 58.15,38.76 58.15,38.76 l -4.77,14.63 -66.93,-44.68"
         style="fill:#ffffff;fill-opacity:1;fill-rule:nonzero;stroke:none"
         id="path288" />
      <path
         d="m 5624.19,2839.55 c 0,0 0.24,15.16 14.97,26.17 14.72,11.01 24.19,9.88 24.19,9.88 0,0 -0.43,-18.01 -14.41,-27.98 -13.98,-9.97 -24.75,-8.07 -24.75,-8.07"
         style="fill:#f14453;fill-opacity:1;fill-rule:nonzero;stroke:none"
         id="path290" />
      <path
         d="m 5468.98,3043.26 c 0,0 30.14,152.48 164.41,147.98 134.28,-4.5 160.8,-77.05 162.86,-155.54 0,0 -131.22,28.42 -187.36,33.53 -56.14,5.11 -139.91,-25.97 -139.91,-25.97"
         style="fill:#406fbf;fill-opacity:1;fill-rule:nonzero;stroke:none"
         id="path292" />
      <path
         d="m 5796.25,3035.7 c 0,0 -0.35,0.07 -1.03,0.22 -7.37,1.58 -53.1,11.36 -100.15,20.04 -32.01,5.91 -64.63,11.31 -86.18,13.27 -4.27,0.39 -8.69,0.57 -13.23,0.57 -35.86,0 -78.64,-11.22 -104.19,-19.07 -7.23,-2.22 -13.07,-4.17 -16.99,-5.52 -3.54,-1.22 -5.5,-1.95 -5.5,-1.95 0,0 29.28,148.08 158.62,148.08 1.92,0 3.84,-0.03 5.79,-0.1 134.28,-4.5 160.8,-77.05 162.86,-155.54"
         style="fill:#3563b7;fill-opacity:1;fill-rule:nonzero;stroke:none"
         id="path294" />
      <path
         d="m 5534.58,3080.16 c -71.32,-13.12 -97.54,-16.35 -158.5,-47.31 -9.77,-4.96 -19.66,-10.58 -26.06,-19.47 -6.4,-8.88 -8.34,-21.89 -1.73,-30.62 4.37,-5.77 11.21,-10.04 18.4,-10.82 25.25,-2.76 81.18,1.44 115.57,7.16 l 0.74,34.45 c 0.38,17.56 11.62,33.19 28.32,38.62 22.65,7.36 52.1,14.49 78.01,14.05 60.56,-1.03 112.28,-8.07 172.15,-23.33 -51.4,24.67 -84.58,34.81 -143.62,40.14 -15.97,1.44 -40.58,4.98 -83.28,-2.87"
         style="fill:#406fbf;fill-opacity:1;fill-rule:nonzero;stroke:none"
         id="path296" />
      <path
         d="m 5673.75,3200.4 c -5.3,3.45 -12.27,3.9 -18.21,1.75 -5.94,-2.15 -10.86,-6.69 -14.07,-12.14 l 39.82,-5.87 c 1.03,6.24 -2.25,12.81 -7.54,16.26"
         style="fill:#406fbf;fill-opacity:1;fill-rule:nonzero;stroke:none"
         id="path298" />
      <path
         d="m 5475.18,2985.75 -2.52,0.79 c -2.1,1.41 -2.68,4.25 -1.29,6.33 13.93,20.96 34.91,20.69 35.85,20.79 2.52,-0.04 4.55,-2.12 4.53,-4.64 -0.02,-2.51 -2.06,-4.51 -4.55,-4.49 -0.88,0.05 -17.04,0.05 -28.22,-16.77 -0.88,-1.32 -2.33,-2.02 -3.8,-2.01"
         style="fill:#17282f;fill-opacity:1;fill-rule:nonzero;stroke:none"
         id="path300" />
      <path
         d="m 4908.62,185 c 101.89,238.121 212.09,472.73 327.87,704.398 119.38,238.902 244.7,475.192 381.22,704.782 30.78,51.76 62.1,103.24 94.47,154.02 9.19,14.43 18.55,28.76 28.42,42.74 2.46,3.49 4.95,6.96 7.48,10.4 0.3,0.4 8.81,11.55 3.27,4.47 5.24,6.7 10.66,13.25 16.28,19.62 11.29,12.82 23.57,24.28 36.28,35.64 5.23,4.68 3.22,3.33 1.54,1.99 -1.58,-1.26 -2.86,-2.52 2.33,1.14 3.35,2.37 6.68,4.75 10.11,7 6.88,4.51 13.99,8.66 21.3,12.43 3.65,1.88 7.36,3.65 11.1,5.34 -8.83,-3.99 3.49,1.23 4.44,1.58 7.66,2.74 15.48,5.04 23.41,6.81 3.94,0.88 7.91,1.64 11.9,2.26 -10.51,-1.63 2.58,0.01 4.02,0.1 4,0.23 8.01,0.32 12.01,0.25 1.4,-0.03 15.44,-0.88 10,-0.37 -3.91,0.37 -1.35,-0.06 1.53,-0.49 2.13,-0.33 4.44,-0.65 4.4,-0.64 3.69,-0.77 7.35,-1.7 10.96,-2.76 3.03,-0.89 5.98,-2.03 9,-2.95 4.73,-1.46 3.17,-0.57 1.09,0.31 -2.38,1.02 -5.43,2.03 -0.4,-0.49 5.43,-2.72 10.82,-5.42 15.99,-8.64 2.55,-1.59 4.97,-3.34 7.48,-4.99 3.89,-2.86 3.24,-2.32 -1.96,1.63 1.56,-1.25 3.08,-2.52 4.59,-3.83 3.77,-3.27 7.38,-6.72 10.84,-10.32 2.09,-2.17 4.11,-4.4 6.09,-6.68 1.94,-2.25 9.07,-8.12 0.6,-0.32 9.11,-8.4 15.72,-23.41 21.24,-34.32 1.44,-2.84 2.83,-5.71 4.16,-8.6 0.28,-0.6 4.5,-10.31 1.62,-3.46 -2.91,6.88 1.15,-3.05 1.38,-3.64 1.17,-3.05 2.3,-6.12 3.38,-9.21 4.78,-13.6 8.68,-27.49 11.9,-41.54 2.76,-12.07 4.84,-24.23 6.82,-36.44 0.93,-5.72 0.66,-3.2 0.32,-0.68 -0.35,2.53 -0.76,5.06 -0.12,-0.71 0.37,-3.34 0.79,-6.67 1.13,-10.01 0.81,-7.72 1.45,-15.46 1.95,-23.21 2.22,-34.74 1.77,-69.73 1.07,-104.51 -1.57,-78.55 -7.3,-156.94 -12.85,-235.3 -10.88,-153.4 -20.84,-307.92 1.66,-460.78 17.2,-116.79 55.18,-233.25 118.06,-333.661 31.14,-49.738 68.7,-96.429 112.84,-135.238 22.97,-20.191 47.62,-38.851 73.64,-54.953 19.73,-12.207 42.84,-27.449 65.67,-32.52 28.47,-6.328 57.9,-9.449 86.98,-11.039 23.54,-1.281 46.05,21.621 45,45 -1.14,25.481 -19.78,43.629 -45,45 -9.02,0.493 -18.03,1.129 -27.02,2.039 -3.91,0.403 -7.82,0.883 -11.73,1.321 11.53,-1.321 0.48,-0.039 -1.65,0.293 -8.42,1.297 -17.48,4.476 -25.95,4.918 l -1.53,0.379 c 2.46,-1 4.93,-2 7.39,-3 -2.15,1.011 -4.3,2.043 -6.44,3.082 -5.33,2.609 -10.61,5.308 -15.83,8.121 -13.45,7.218 -26.55,15.117 -39.22,23.636 -5.82,3.911 -11.54,7.942 -17.18,12.102 -1.46,1.078 -10.77,8.352 -2.01,1.422 -2.74,2.168 -5.48,4.34 -8.18,6.547 -10.8,8.851 -21.22,18.152 -31.25,27.859 -10.05,9.723 -19.71,19.863 -28.97,30.344 -4.65,5.258 -9.19,10.598 -13.64,16.027 -2.23,2.723 -4.4,5.481 -6.61,8.219 -3.08,3.953 -2.89,3.691 0.57,-0.75 -1.42,1.871 -2.84,3.75 -4.24,5.641 -16.94,22.832 -32.26,46.859 -46.06,71.722 -6.98,12.571 -13.57,25.36 -19.78,38.321 -2.61,5.429 -5.14,10.878 -7.62,16.367 -1.48,3.301 -2.91,6.633 -4.39,9.929 -2,4.68 -1.91,4.442 0.28,-0.738 -0.93,2.231 -1.85,4.461 -2.77,6.699 -22.47,55.211 -38.88,112.84 -49.95,171.391 -2.47,13.102 -4.68,26.25 -6.62,39.449 -0.29,1.93 -1.94,14.129 -0.4,2.379 -0.47,3.59 -0.92,7.172 -1.36,10.762 -1.01,8.34 -1.91,16.699 -2.7,25.058 -3.63,38.122 -5.39,76.412 -5.91,114.682 -1.11,80.05 3.38,160.04 8.83,239.88 5.47,80.02 11.94,160 14.83,240.17 2.47,68.66 3.6,137.53 -6.96,205.6 -8.43,54.36 -25.79,110.85 -59.07,155.37 -38.73,51.82 -95.88,85.68 -161.92,85.13 -154.68,-1.26 -239.34,-149.3 -310.4,-264.88 -138.64,-225.51 -264.58,-458.86 -384.68,-694.69 -120.43,-236.48 -234.76,-476.211 -341.18,-719.332 -11.75,-26.84 -23.38,-53.726 -34.9,-80.66 -9.24,-21.578 -7.16,-49.246 16.14,-61.566 19.33,-10.211 51.68,-6.961 61.57,16.148"
         style="fill:#dadbd8;fill-opacity:1;fill-rule:nonzero;stroke:none"
         id="path302" />
      <path
         d="m 7143.2,166.852 h -572.48 c -22.42,0 -40.58,18.168 -40.58,40.578 v 700.058 c 0,22.422 18.16,40.59 40.58,40.59 h 572.48 c 22.41,0 40.58,-18.168 40.58,-40.59 V 207.43 c 0,-22.41 -18.17,-40.578 -40.58,-40.578"
         style="fill:#406fbf;fill-opacity:1;fill-rule:nonzero;stroke:none"
         id="path304" />
      <path
         d="m 6512.24,737.301 h 690.547 v 97.4609 H 6512.24 Z"
         style="fill:#17282f;fill-opacity:1;fill-rule:nonzero;stroke:none"
         id="path306" />
      <path
         d="m 6514.78,915.898 c 5.54,0 688.01,0 688.01,0 l -10.43,62.122 h -114.04 l -82.77,82.76 h -312.82 l -72.78,-82.839 -95.17,-3.601 v -58.442"
         style="fill:#17282f;fill-opacity:1;fill-rule:nonzero;stroke:none"
         id="path308" />
      <path
         d="m 7214.33,186 c 0,-68.949 -55.9,-124.8398 -124.85,-124.8398 -68.95,0 -124.84,55.8908 -124.84,124.8398 0,68.949 55.89,124.852 124.84,124.852 68.95,0 124.85,-55.903 124.85,-124.852"
         style="fill:#17282f;fill-opacity:1;fill-rule:nonzero;stroke:none"
         id="path310" />
      <path
         d="m 6743.18,134.25 c 0,-41.6211 -33.74,-75.3594 -75.36,-75.3594 -41.62,0 -75.37,33.7383 -75.37,75.3594 0,41.629 33.75,75.371 75.37,75.371 41.62,0 75.36,-33.742 75.36,-75.371"
         style="fill:#17282f;fill-opacity:1;fill-rule:nonzero;stroke:none"
         id="path312" />
      <path
         d="m 6436.77,321.828 h 93.3711 v 93.3633 H 6436.77 Z"
         style="fill:#406fbf;fill-opacity:1;fill-rule:nonzero;stroke:none"
         id="path314" />
      <path
         d="m 6530.14,701.949 h 653.641 v 35.3516 H 6530.14 Z"
         style="fill:#2d5bb2;fill-opacity:1;fill-rule:nonzero;stroke:none"
         id="path316" />
      <path
         d="m 5106.98,69.8789 h -645.14 v 81.2621 h 645.14 V 69.8789"
         style="fill:#17282f;fill-opacity:1;fill-rule:nonzero;stroke:none"
         id="path318" />
      <path
         d="m 5010.17,134.879 h -464.54 v 47.41 h 464.54 v -47.41"
         style="fill:#17282f;fill-opacity:1;fill-rule:nonzero;stroke:none"
         id="path320" />
      <path
         d="m 4787.14,177.621 c 2.45,0 68.7,141.617 68.7,141.617 l 111.91,-22.57 -54.4,-114.379 -126.21,-4.668"
         style="fill:#17282f;fill-opacity:1;fill-rule:nonzero;stroke:none"
         id="path322" />
      <path
         d="m 5913.66,2038.02 c -5.9,-0.55 -94.18,-33.39 -126.55,-76.7 l 40.58,8.89 -44.02,-109.6 c 0,0 -8.89,-46.62 50.83,-19.16 59.72,27.46 78.63,-23.89 115.71,30.78 37.08,54.67 77.41,108.65 77.41,108.65 l 65.09,46.47 -111.78,117.45 -67.27,-106.78"
         style="fill:#406fbf;fill-opacity:1;fill-rule:nonzero;stroke:none"
         id="path324" />
      <path
         d="m 6512.24,321.828 h 17.8984 v 93.3633 H 6512.24 Z"
         style="fill:#2d5bb2;fill-opacity:1;fill-rule:nonzero;stroke:none"
         id="path326" />
      <path
         d="m 7208.8,656.762 c 0,-84.434 0,-168.871 0,-253.301 0,-4.832 7.5,-4.84 7.5,0 0,84.43 0,168.867 0,253.301 0,4.828 -7.5,4.84 -7.5,0"
         style="fill:#406fbf;fill-opacity:1;fill-rule:nonzero;stroke:none"
         id="path328" />
      <path
         d="m 7208.8,361.801 c 0,-10.301 0,-20.59 0,-30.883 0,-4.828 7.5,-4.84 7.5,0 0,10.293 0,20.582 0,30.883 0,4.82 -7.5,4.828 -7.5,0"
         style="fill:#406fbf;fill-opacity:1;fill-rule:nonzero;stroke:none"
         id="path330" />
      <path
         d="m 5310.82,1608.68 c 2.04,-25.61 -14.25,-46.41 -36.41,-46.41 h -702.43 c -22.27,0 -41.95,20.8 -43.98,46.41 l -41.73,516.93 c -0.45,5.33 -0.11,10.4 0.91,15.08 3.95,18.2 17.86,31.33 35.51,31.33 h 702.41 c 22.29,0 41.96,-20.8 43.99,-46.41 l 41.73,-516.93"
         style="fill:#17282f;fill-opacity:1;fill-rule:nonzero;stroke:none"
         id="path332" />
      <path
         d="m 5274.41,1562.27 h -2.48 c 0.71,3.29 1.09,6.78 1.09,10.41 0.01,1.53 -0.06,3.09 -0.19,4.67 l -41.73,516.94 c -2.15,25.6 -21.82,46.4 -43.99,46.4 h -699.93 c -0.72,-3.29 -1.1,-6.77 -1.1,-10.4 v 0 c 0,3.63 0.38,7.11 1.1,10.4 3.95,18.2 17.86,31.33 35.51,31.33 h 702.41 c 22.29,0 41.96,-20.8 43.99,-46.41 l 41.73,-516.93 c 0.12,-1.45 0.17,-2.89 0.17,-4.31 0,-23.59 -15.67,-42.1 -36.58,-42.1"
         style="fill:#b1baba;fill-opacity:1;fill-rule:nonzero;stroke:none"
         id="path334" />
      <path
         d="m 5271.93,1562.27 h -699.95 c -22.27,0 -41.95,20.8 -43.98,46.41 l -41.73,516.93 c -0.45,5.33 -0.11,10.4 0.91,15.08 h 699.93 c 22.17,0 41.84,-20.8 43.99,-46.4 l 41.73,-516.94 c 0.45,-5.33 0.11,-10.4 -0.9,-15.08"
         style="fill:#17282f;fill-opacity:1;fill-rule:nonzero;stroke:none"
         id="path336" />
      <path
         d="m 5271.93,1562.27 h -298.56 c 0,0 -31.67,116.12 -31.27,119.92 v 0 0 l -141.2,0.63 -14.54,-120.55 v 0 l 14.54,120.55 -36.48,-120.55 h -52.74 -2.5 -24.12 -8.52 -104.56 c -22.27,0 -41.95,20.8 -43.98,46.41 l -41.73,516.93 c -0.13,1.59 -0.2,3.14 -0.19,4.68 0,3.63 0.38,7.11 1.1,10.4 h 699.93 c 22.17,0 41.84,-20.8 43.99,-46.4 l 41.73,-516.94 c 0.13,-1.58 0.2,-3.14 0.19,-4.67 0,-3.63 -0.38,-7.12 -1.09,-10.41 v 0 0"
         style="fill:#849193;fill-opacity:1;fill-rule:nonzero;stroke:none"
         id="path338" />
      <path
         d="m 4800.9,1682.82 141.2,-0.63 -27.33,-254.34 138.71,-2.16 v -29.95 l -373.57,-0.9 v 29.55 l 90.03,1.73 30.96,256.7"
         style="fill:#17282f;fill-opacity:1;fill-rule:nonzero;stroke:none"
         id="path340" />
      <path
         d="m 4973.37,1562.27 h -44.15 l 12.88,119.92 c -0.4,-3.8 31.27,-119.92 31.27,-119.92"
         style="fill:#576063;fill-opacity:1;fill-rule:nonzero;stroke:none"
         id="path342" />
      <path
         d="m 4786.36,1562.27 h -21.94 l 36.48,120.55 -14.54,-120.55"
         style="fill:#576063;fill-opacity:1;fill-rule:nonzero;stroke:none"
         id="path344" />
      <path
         d="m 4402.3,46.8281 h 48.5391 v 1335.09 H 4402.3 Z"
         style="fill:#17282f;fill-opacity:1;fill-rule:nonzero;stroke:none"
         id="path346" />
      <path
         d="M 4450.84,46.8281 H 4402.3 V 1297.49 1211.32 l 48.54,21.66 V 1054.12 861.012 759.32 758.121 46.8281"
         style="fill:#57666b;fill-opacity:1;fill-rule:nonzero;stroke:none"
         id="path348" />
      <path
         d="m 4053.38,46.8281 h 48.5508 v 1335.09 H 4053.38 Z"
         style="fill:#17282f;fill-opacity:1;fill-rule:nonzero;stroke:none"
         id="path350" />
      <path
         d="m 4101.93,46.8281 h -48.55 V 211.668 l 16.92,78.941 4.52,21.039 h -0.01 27.12 V 46.8281 m 0,346.9999 h -48.55 v 66.922 c 14.3,-12.18 31.14,-19.832 47.66,-19.832 0.29,0 0.59,0 0.89,0.012 v -47.102 m 0,401.223 c -3.48,2.609 -6.31,5.808 -8.32,9.597 -2.29,4.293 -3.38,9.032 -3.39,14.024 -0.01,9.816 4.17,20.656 11.71,31.137 v -54.758 m -48.55,300.079 v 202.36 -86.17 l 48.55,21.66 v -122.26 c -15.84,-4.14 -32.1,-9.38 -48.55,-15.59"
         style="fill:#57666b;fill-opacity:1;fill-rule:nonzero;stroke:none"
         id="path352" />
      <path
         d="m 4053.38,1211.32 v 86.17 h 48.55 v -64.51 l -48.55,-21.66"
         style="fill:#424f54;fill-opacity:1;fill-rule:nonzero;stroke:none"
         id="path354" />
      <path
         d="m 4402.3,1211.32 v 86.17 h 48.54 v -64.51 l -48.54,-21.66"
         style="fill:#424f54;fill-opacity:1;fill-rule:nonzero;stroke:none"
         id="path356" />
      <path
         d="m 5436.56,46.8281 h 48.543 v 1335.09 h -48.543 z"
         style="fill:#17282f;fill-opacity:1;fill-rule:nonzero;stroke:none"
         id="path358" />
      <path
         d="m 5485.1,46.8281 h -48.54 V 1297.49 1211.32 l 48.54,21.66 V 1046.46 189.109 46.8281"
         style="fill:#57666b;fill-opacity:1;fill-rule:nonzero;stroke:none"
         id="path360" />
      <path
         d="m 5436.56,1211.32 v 86.17 h 48.54 v -64.51 l -48.54,-21.66"
         style="fill:#424f54;fill-opacity:1;fill-rule:nonzero;stroke:none"
         id="path362" />
      <path
         d="m 5882.19,46.8281 h 48.5469 v 1335.09 H 5882.19 Z"
         style="fill:#17282f;fill-opacity:1;fill-rule:nonzero;stroke:none"
         id="path364" />
      <path
         d="m 5930.74,46.8281 h -48.55 V 1297.49 1212.25 l 48.55,21.65 V 46.8281"
         style="fill:#57666b;fill-opacity:1;fill-rule:nonzero;stroke:none"
         id="path366" />
      <path
         d="m 5882.19,1212.25 v 85.24 h 48.55 v -63.59 l -48.55,-21.65"
         style="fill:#424f54;fill-opacity:1;fill-rule:nonzero;stroke:none"
         id="path368" />
      <path
         d="m 3990.48,1297.49 h 2000.69 v 98.8203 H 3990.48 Z"
         style="fill:#17282f;fill-opacity:1;fill-rule:nonzero;stroke:none"
         id="path370" />
      <path
         d="m 5991.17,1297.49 h -469.33 v 98.82 h 469.33 v -98.82"
         style="fill:#0f191d;fill-opacity:1;fill-rule:nonzero;stroke:none"
         id="path372" />
      <path
         d="m 5053.48,1396.31 h -373.57 v 28.08 l 90.03,1.73 30.96,256.7 141.2,-0.63 -12.88,-119.92 v 0 l -14.45,-134.42 138.71,-2.16 v -29.38"
         style="fill:#9ba6a6;fill-opacity:1;fill-rule:nonzero;stroke:none"
         id="path374" />
      <path
         d="m 4929.22,1562.27 v 0 l 12.88,119.92 -12.88,-119.92"
         style="fill:#969e9f;fill-opacity:1;fill-rule:nonzero;stroke:none"
         id="path376" />
      <path
         d="m 4679.91,1394.84 v 1.47 h 373.57 v -0.57 l -373.57,-0.9"
         style="fill:#9ba6a6;fill-opacity:1;fill-rule:nonzero;stroke:none"
         id="path378" />
      <path
         d="m 3942.57,635.691 c 26.32,32.438 77.19,54.09 133.04,64.508 -4.38,-15.98 -1.1,-30.719 8.35,-34.328 10.53,-4.043 24.66,7.27 31.56,25.258 1.94,5.082 3.02,10.101 3.45,14.851 56.31,4.579 112.62,-1.902 150.2,-19.929 0,0 -36.79,-33.172 -78.47,-120.36 -1.28,0.039 -2.56,0.079 -3.86,0.071 -26.97,-0.274 -48.71,-13.301 -48.55,-29.094 0.11,-11.527 11.91,-21.328 28.76,-25.68 -2.19,-5.59 -4.38,-11.269 -6.56,-17.168 -39.7,-107.441 -145.61,-29.769 -144.65,43.77 0,0 -132.25,25.398 -73.27,98.101"
         style="fill:#406fbf;fill-opacity:1;fill-rule:nonzero;stroke:none"
         id="path380" />
      <path
         d="m 3812.09,774.379 c -32.43,35.019 -92.05,55.891 -156.5,63.59 6.19,-17.879 3.55,-34.93 -6.95,-39.758 -11.7,-5.391 -28.66,6.449 -37.86,26.437 -2.6,5.641 -4.21,11.293 -5.05,16.68 -64.54,1 -128.25,-10.598 -169.74,-33.969 0,0 44.42,-35.05 98.45,-131.347 1.46,0.148 2.92,0.289 4.41,0.379 30.77,1.699 56.52,-11.52 57.52,-29.532 0.73,-13.16 -11.98,-25.218 -30.86,-31.441 2.91,-6.199 5.83,-12.508 8.75,-19.066 53.3,-119.532 168.23,-23.051 161.64,60.718 0,0 148.87,38.84 76.19,117.309"
         style="fill:#406fbf;fill-opacity:1;fill-rule:nonzero;stroke:none"
         id="path382" />
      <path
         d="m 3733.32,800.621 c 13.78,67.231 71.51,137.328 145.01,194.848 5.72,-26.61 21.68,-45.598 38.18,-43.707 18.42,2.097 30.43,29.289 26.85,60.728 -1.01,8.88 -3.25,17.02 -6.23,24.27 78.6,49.34 165.57,82.58 234.01,84.78 0,0 -28.49,-76.22 -23.13,-234.892 -1.9,-0.898 -3.8,-1.808 -5.7,-2.82 -39.09,-20.84 -60.9,-56.289 -48.7,-79.18 8.91,-16.73 33.52,-22.07 61.38,-15.636 1.04,-9.801 2.16,-19.742 3.45,-29.981 23.57,-186.679 -189.65,-153.75 -243.99,-45.851 0,0 -211.99,-63.211 -181.13,87.441"
         style="fill:#406fbf;fill-opacity:1;fill-rule:nonzero;stroke:none"
         id="path384" />
      <path
         d="m 4061.87,625.578 c -56.29,0 -120.85,34.84 -147.42,87.602 0,0 -44.14,-13.16 -89.19,-13.16 -2.56,0 -5.12,0.05 -7.67,0.14 -44.4,1.551 -87.31,17.352 -87.34,72.621 0,8.348 0.98,17.598 3.07,27.84 13.78,67.231 71.51,137.328 145.01,194.848 5.46,-25.391 20.24,-43.84 35.92,-43.84 0.76,0 1.51,0.039 2.26,0.133 16.22,1.847 27.48,23.168 27.48,49.708 0,3.59 -0.2,7.28 -0.63,11.02 -1.01,8.88 -3.25,17.02 -6.23,24.27 78.6,49.34 165.57,82.58 234.01,84.78 0,0 -23.8,-63.68 -23.8,-195.802 0,-12.418 0.21,-25.449 0.67,-39.09 -1.9,-0.898 -3.8,-1.808 -5.7,-2.82 -31.76,-16.93 -52.12,-43.508 -52.09,-65.156 0.01,-4.992 1.1,-9.731 3.39,-14.024 6.47,-12.136 21.2,-18.277 39.44,-18.277 6.9,0 14.3,0.867 21.94,2.641 1.04,-9.801 2.16,-19.742 3.45,-29.981 1.22,-9.691 1.81,-18.793 1.81,-27.312 0.03,-75.43 -45.53,-106.129 -98.38,-106.141"
         style="fill:#5d87cd;fill-opacity:1;fill-rule:nonzero;stroke:none"
         id="path386" />
      <path
         d="m 4061.92,995 c 1.94,2.16 2.99,3.262 2.99,3.262 -1.02,-1.082 -1.99,-2.184 -2.99,-3.262"
         style="fill:#17282f;fill-opacity:1;fill-rule:nonzero;stroke:none"
         id="path388" />
      <path
         d="m 3890.63,375.391 c -7.22,40.148 -10.76,80.898 -10.76,121.66 -0.01,158.519 53.55,317.238 151.97,441.648 l -5.88,4.66 c -99.52,-125.82 -153.59,-286.097 -153.59,-446.308 0,-41.192 3.57,-82.391 10.88,-122.992 l 7.38,1.332"
         style="fill:#17282f;fill-opacity:1;fill-rule:nonzero;stroke:none"
         id="path390" />
      <path
         d="m 3621.82,750.73 c 147.8,-76.601 230.16,-242.378 251.93,-306.441 0.39,-1.121 1.28,-2 2.42,-2.359 1.13,-0.36 2.37,-0.16 3.33,0.539 0.03,0.019 11.42,8.281 29.92,21.59 55.49,39.91 174.81,125.082 240.72,167.312 1.74,1.117 2.25,3.438 1.13,5.18 -1.11,1.738 -3.43,2.25 -5.18,1.129 C 4057.8,581.109 3875.13,448.559 3875.1,448.539 l 2.2,-3.039 3.55,1.219 c -22.37,65.351 -104.91,232.293 -255.58,310.672 -1.83,0.949 -4.1,0.238 -5.05,-1.602 -0.96,-1.84 -0.24,-4.098 1.6,-5.059"
         style="fill:#17282f;fill-opacity:1;fill-rule:nonzero;stroke:none"
         id="path392" />
      <path
         d="M 4105.96,311.648 H 3657.3 l 0.17,82.18 h 448.03 l 0.46,-82.18"
         style="fill:#17282f;fill-opacity:1;fill-rule:nonzero;stroke:none"
         id="path394" />
      <path
         d="m 3689.8,338.449 70.1,-291.6209 h 258.15 l 62.51,291.6209 H 3689.8"
         style="fill:#17282f;fill-opacity:1;fill-rule:nonzero;stroke:none"
         id="path396" />
      <path
         d="m 3704,279.371 h -1.03 l -6.73,32.277 7.76,-32.277"
         style="fill:#a7a9a8;fill-opacity:1;fill-rule:nonzero;stroke:none"
         id="path398" />
      <path
         d="m 4070.3,290.609 4.51,21.039 h 0.01 l -4.52,-21.039"
         style="fill:#394247;fill-opacity:1;fill-rule:nonzero;stroke:none"
         id="path400" />
      <path
         d="M 4067.89,279.371 H 3704 l -7.76,32.277 h 378.57 l -4.51,-21.039 -2.41,-11.238"
         style="fill:#0f191d;fill-opacity:1;fill-rule:nonzero;stroke:none"
         id="path402" />
      <path
         d="m 3682.31,408.191 c 13.3,0 26.61,0 39.91,0 1.38,0 2.5,1.118 2.5,2.5 0,1.379 -1.12,2.5 -2.5,2.5 -13.3,0 -26.61,0 -39.91,0 -1.38,0 -2.5,-1.121 -2.5,-2.5 0,-1.382 1.12,-2.5 2.5,-2.5"
         style="fill:#406fbf;fill-opacity:1;fill-rule:nonzero;stroke:none"
         id="path404" />
      <path
         d="m 3740.56,408.191 c 36.41,0 72.82,0 109.22,0 1.38,0 2.5,1.118 2.5,2.5 0,1.379 -1.12,2.5 -2.5,2.5 -36.4,0 -72.81,0 -109.22,0 -1.38,0 -2.5,-1.121 -2.5,-2.5 0,-1.382 1.12,-2.5 2.5,-2.5"
         style="fill:#406fbf;fill-opacity:1;fill-rule:nonzero;stroke:none"
         id="path406" />
      <path
         d="m 4286.98,1607.64 c -13.16,41.12 -90.48,80.6 -87.19,110.21 3.29,29.61 2.84,69.09 2.84,69.09 h -76.86 c -6.58,-6.58 -72.38,-136.53 -47.71,-289.52 l 21.1,-101.99 h 154.92 c 0,0 46.06,171.08 32.9,212.21"
         style="fill:#406fbf;fill-opacity:1;fill-rule:nonzero;stroke:none"
         id="path408" />
      <path
         d="m 4207.42,1778.91 h -91.39 v 38.02 h 91.39 v -38.02"
         style="fill:#17282f;fill-opacity:1;fill-rule:nonzero;stroke:none"
         id="path410" />
      <path
         d="m 4052.08,1835.69 c 0,0 10.38,67.76 59.56,71.58 49.18,3.83 140.43,0 140.43,0 v -45.9 h -44.65 v -44.44 h -87.59 v 32.97 c 0,0 -21.85,15.3 -67.75,-14.21"
         style="fill:#17282f;fill-opacity:1;fill-rule:nonzero;stroke:none"
         id="path412" />
      <path
         d="m 4207.42,1833.97 c 0,0 7.03,-38.2 63.87,-42.29 l 2.2,9.55 c 0,0 -43.34,13.43 -44.49,60.14 h -21.58 v -27.4"
         style="fill:#17282f;fill-opacity:1;fill-rule:nonzero;stroke:none"
         id="path414" />
      <path
         d="m 4072.55,1539.21 v 57.78 l 0.98,0.5 c -1.19,-18.51 -1.36,-37.86 -0.14,-57.8 l -0.84,-0.48 m 159.06,132.98 c -1.11,1.02 -2.21,2.04 -3.29,3.05 h 0.01 l 3.28,-3.05"
         style="fill:#ffffff;fill-opacity:1;fill-rule:nonzero;stroke:none"
         id="path416" />
      <path
         d="m 4073.39,1539.69 c -1.22,19.94 -1.05,39.29 0.14,57.8 l 154.79,77.75 c 1.08,-1.01 2.18,-2.03 3.29,-3.05 l 26.97,-25.06 -185.19,-107.44"
         style="fill:#6d97d6;fill-opacity:1;fill-rule:nonzero;stroke:none"
         id="path418" />
      <path
         d="m 4082.2,1481.44 -5.33,23.91 196.54,125.61 7.59,-10.67 -198.8,-138.85"
         style="fill:#6d97d6;fill-opacity:1;fill-rule:nonzero;stroke:none"
         id="path420" />
      <path
         d="m 2680.94,354.379 -0.21,-196.051 98.58,-7.078 34.65,184.18 c -45.09,30.07 -89.46,37.25 -133.02,18.949"
         style="fill:#c8685a;fill-opacity:1;fill-rule:nonzero;stroke:none"
         id="path422" />
      <path
         d="m 2684.16,178.789 c -9.7,-25.871 -10.34,-131.7382 -10.34,-131.7382 l 208.98,-0.2227 c 12.41,38.2813 -6.8,64.4099 -31.17,67.8829 -10.48,1.48 -22.8,12.23 -31.78,21.629 -0.06,1.211 -12.84,60.019 -20.74,62.828 0,0 -5.44,6.121 -10.08,0.012 -4.63,-6.102 -8.65,-25.969 -8.65,-25.969 -32.62,40.488 -64.59,35.078 -96.22,5.578"
         style="fill:#17282f;fill-opacity:1;fill-rule:nonzero;stroke:none"
         id="path424" />
      <path
         d="m 2681.63,148.059 c 23.61,8.703 48.95,5.39 69.53,-9.071 3.61,-2.527 7.02,3.391 3.45,5.903 -21.93,15.398 -49.65,19.019 -74.8,9.75 -4.09,-1.512 -2.32,-8.11 1.82,-6.582"
         style="fill:#ffffff;fill-opacity:1;fill-rule:nonzero;stroke:none"
         id="path426" />
      <path
         d="m 2882.17,62.3086 v 0 l -205.9,0.2227 c -1.89,0.0078 -3.42,1.539 -3.41,3.4179 0,1.8906 1.53,3.4102 3.41,3.4102 v 0 l 205.9,-0.2188 c 1.89,0 3.42,-1.5312 3.41,-3.4218 0,-1.879 -1.53,-3.4102 -3.41,-3.4102"
         style="fill:#ffffff;fill-opacity:1;fill-rule:nonzero;stroke:none"
         id="path428" />
      <path
         d="m 2948.41,354.379 -0.21,-196.051 98.59,-7.078 34.65,184.18 c -45.09,30.07 -89.46,37.25 -133.03,18.949"
         style="fill:#c8685a;fill-opacity:1;fill-rule:nonzero;stroke:none"
         id="path430" />
      <path
         d="M 2951.63,178.789 C 2941.93,152.918 2941.3,47.0508 2941.3,47.0508 l 208.97,-0.2227 c 12.42,38.2813 -6.8,64.4099 -31.17,67.8829 -10.48,1.48 -22.8,12.23 -31.78,21.629 -0.06,1.211 -12.84,60.019 -20.73,62.828 0,0 -5.45,6.121 -10.08,0.012 -4.64,-6.102 -8.66,-25.969 -8.66,-25.969 -32.62,40.488 -64.59,35.078 -96.22,5.578"
         style="fill:#17282f;fill-opacity:1;fill-rule:nonzero;stroke:none"
         id="path432" />
      <path
         d="m 2949.1,148.059 c 23.61,8.703 48.95,5.39 69.54,-9.071 3.6,-2.527 7.02,3.391 3.44,5.903 -21.93,15.398 -49.65,19.019 -74.8,9.75 -4.09,-1.512 -2.32,-8.11 1.82,-6.582"
         style="fill:#ffffff;fill-opacity:1;fill-rule:nonzero;stroke:none"
         id="path434" />
      <path
         d="m 3149.64,62.3086 v 0 l -205.9,0.2227 c -1.89,0.0078 -3.41,1.539 -3.41,3.4179 0,1.8906 1.53,3.4102 3.41,3.4102 h 0.01 l 205.9,-0.2188 c 1.88,0 3.41,-1.5312 3.41,-3.4218 -0.01,-1.879 -1.53,-3.4102 -3.42,-3.4102"
         style="fill:#ffffff;fill-opacity:1;fill-rule:nonzero;stroke:none"
         id="path436" />
      <path
         d="m 3063.32,2152.91 c 0,0 133.89,-213.38 184.43,-539.55 54.38,-351.01 0,-862.11 0,-862.11 H 2749.7 v 664.77 l -50.36,654.19 363.98,82.7"
         style="fill:#17282f;fill-opacity:1;fill-rule:nonzero;stroke:none"
         id="path438" />
      <path
         d="m 2649.13,2450.32 c -4.9,0.15 -38.85,-216.08 -36.58,-222.43 8.38,-23.39 258.03,28.84 258.03,28.84 l 15.73,-66.75 c 0,0 -109.01,-52.93 -226.27,-72.07 -120.99,-19.74 -166.25,33.85 -166.81,115.91 -0.51,75.2 30.59,258.05 30.59,258.05 l 125.31,-41.55"
         style="fill:#c8685a;fill-opacity:1;fill-rule:nonzero;stroke:none"
         id="path440" />
      <path
         d="m 3067.5,2071 -386.71,22.4 c -56.61,-74.15 -78.9,-217.5 -74.94,-340.32 4.26,-78.61 17.57,-180.84 32.11,-278.65 21.01,-141.27 44.6,-273.3 47.2,-311.59 h 4.46 c -0.29,-49.59 -31.22,-216.699 -31.26,-291.141 -0.15,-253.609 -3.42,-642.289 -3.42,-642.289 h 187.91 c 0,0 80.11,871.56 81.81,924.36 0.19,5.87 0.43,11.85 0.68,17.88 l 5.26,92.23 c 5.68,84.34 13.24,178.21 15.6,273.06 l 8.78,153.78 c 111.62,40.21 163.12,176.43 181.93,205.22 -32.48,107.51 -41.24,128.62 -69.41,175.06"
         style="fill:#17282f;fill-opacity:1;fill-rule:nonzero;stroke:none"
         id="path442" />
      <path
         d="m 3125.4,1941.83 c 0,0 57.1,-196.69 105.54,-667.1 9.24,-89.75 -20.87,-225.43 -35.79,-309.339 l -102.51,-736.852 -181.18,0.871 c 15.68,338.949 43.19,729.692 76.67,874.87 l -216.23,736.11 353.5,101.44"
         style="fill:#17282f;fill-opacity:1;fill-rule:nonzero;stroke:none"
         id="path444" />
      <path
         d="m 2842.85,229.41 h -187.91 c 0,0 3.27,388.68 3.42,642.289 0.04,74.442 30.97,241.551 31.26,291.141 v 0 0 h -4.46 c -2.6,38.29 -26.19,170.32 -47.2,311.59 -3.16,21.22 -6.25,42.66 -9.21,64.01 -0.85,6.1 -1.68,12.19 -2.5,18.26 -9.56,70.74 -17.33,139.7 -20.4,196.38 -0.29,9.11 -0.44,18.34 -0.44,27.65 -0.02,92.73 14.66,193.06 47.29,264.66 -7.06,-24.8 -14.42,-48.88 -18.93,-62.67 0,0 69.35,-66.1 217.87,-66.1 69.38,0 156.03,14.42 260.95,56.74 3.21,-9.51 6.65,-20.13 10.44,-32.21 l -351.13,-100.76 107.99,-367.62 c -15.08,39.71 -30.5,67.96 -44.64,89.11 0.36,4.03 -0.93,8.43 -0.93,8.43 -0.01,0 -0.03,0 -0.05,0 -1.05,0 -7.87,6.67 -17.94,17.15 -8.83,10.84 -16.67,19.23 -22.92,26.62 l 1.47,-3.87 c -42.12,45.26 -102.79,112.85 -102.79,112.85 0,0 46.09,-103.53 109.07,-152.75 4.74,-3.71 8.74,-6.48 12.28,-8.69 l 116.72,-305.57 -4.82,-84.4 c -0.25,-6.03 -0.49,-12.01 -0.68,-17.88 -0.75,-23.28 -16.74,-205.75 -34.39,-402.52 -6.91,-76.941 -14.07,-156.121 -20.66,-228.762 -0.13,-1.41 -0.26,-2.789 -0.38,-4.199 C 2854.62,357.41 2842.85,229.41 2842.85,229.41 m 89.77,1063.84 -19.37,65.93 v 0 l 19.37,-65.93 v 0"
         style="fill:#6c7a7f;fill-opacity:1;fill-rule:nonzero;stroke:none"
         id="path446" />
      <path
         d="m 3092.64,228.539 -31.29,0.152 -113.07,0.539 -36.82,0.18 c 15.68,338.949 43.19,729.692 76.67,874.87 v 0 0 0 l -55.51,188.97 -19.37,65.94 c -10.43,45.92 -21.8,83.12 -33.36,113.58 l -107.99,367.62 353.5,101.44 c 0,0 57.1,-196.69 105.54,-667.1 1.19,-11.57 1.73,-23.9 1.73,-36.79 0,-87.08 -24.52,-199.46 -37.52,-272.549 l -29.79,-214.141 -31.83,-228.762 -0.58,-4.199 -40.31,-289.75"
         style="fill:#6c7a7f;fill-opacity:1;fill-rule:nonzero;stroke:none"
         id="path448" />
      <path
         d="m 2932.62,1293.25 -19.37,65.94 c 0,-0.01 0,-0.01 0,-0.01 l 19.37,-65.93 v 0 m -52.73,179.52 v 0 l -107.99,367.62 107.99,-367.62"
         style="fill:#6c7a7f;fill-opacity:1;fill-rule:nonzero;stroke:none"
         id="path450" />
      <path
         d="m 2988.13,1104.28 -57.97,151.77 0.44,7.83 c 0.65,9.66 1.33,19.46 2.02,29.37 l 55.51,-188.97 v 0"
         style="fill:#111d23;fill-opacity:1;fill-rule:nonzero;stroke:none"
         id="path452" />
      <path
         d="m 2930.16,1256.05 -116.72,305.57 c -3.54,2.21 -7.54,4.98 -12.28,8.69 -62.98,49.22 -109.07,152.75 -109.07,152.75 0,0 60.67,-67.59 102.79,-112.85 l -1.47,3.87 c 6.25,-7.39 14.09,-15.78 22.92,-26.62 10.07,-10.48 16.89,-17.15 17.94,-17.15 0.02,0 0.04,0 0.05,0 0,0 1.29,-4.4 0.93,-8.43 14.14,-21.15 29.56,-49.4 44.64,-89.11 l 33.36,-113.58 c 0,-0.01 0,-0.01 0,-0.01 l 19.37,-65.93 c -0.69,-9.91 -1.37,-19.71 -2.02,-29.37 l -0.44,-7.83"
         style="fill:#535f64;fill-opacity:1;fill-rule:nonzero;stroke:none"
         id="path454" />
      <path
         d="m 2988.13,1104.28 v 0 0 m -74.88,254.91 -33.36,113.58 c 11.56,-30.46 22.93,-67.66 33.36,-113.59"
         style="fill:#535f64;fill-opacity:1;fill-rule:nonzero;stroke:none"
         id="path456" />
      <path
         d="m 3096.89,2602.53 c 47.45,-90.11 66.01,-168.84 66.01,-168.84 l -189.75,-35.77 c 0,0 -41.79,196.05 -21.38,244.71 18.94,45.16 32.56,23.63 100.98,-1.49 18.96,-6.96 34.74,-20.74 44.14,-38.61"
         style="fill:#406fbf;fill-opacity:1;fill-rule:nonzero;stroke:none"
         id="path458" />
      <path
         d="m 2602.81,2413.74 -57.62,196.44 c 36.45,54.39 216.77,96.19 216.77,96.19 l 118.8,-6.5 c 0,0 45.66,-10.19 84.75,-22.93 52.19,-17.02 80.41,-30.71 92.86,-59.67 0,0 5.4,-107.01 -7.69,-239.23 -3.6,-36.36 4.54,-185.37 14.69,-247.82 l 58.07,-152.41 c -337.11,-140.49 -489.67,4.91 -489.67,4.91 9.76,29.85 32.92,107.96 37.33,137.13 -3.19,37.22 -4.91,52.7 -20.68,117.86 -3.04,12.58 -42.33,163.81 -47.61,176.03"
         style="fill:#406fbf;fill-opacity:1;fill-rule:nonzero;stroke:none"
         id="path460" />
      <path
         d="m 2560.19,2626.1 c -42.24,-23.02 -61.96,-172.84 -61.96,-172.84 l 147.3,-63.85 c 0,0 57.06,128.37 32.66,185.21 -20.75,47.98 -64.4,80.8 -118,51.48"
         style="fill:#406fbf;fill-opacity:1;fill-rule:nonzero;stroke:none"
         id="path462" />
      <path
         d="m 3469.91,2541.93 c 5.68,20.55 -2.66,43.21 -17.4,58.61 -14.75,15.4 -35.02,24.41 -55.6,29.99 -13.84,3.75 -28.51,6.11 -42.5,2.92 -13.98,-3.18 -27.18,-12.89 -31.16,-26.67 -3.08,-10.7 -0.52,-22.81 -5.58,-32.72 -3.01,-5.9 -8.35,-10.21 -13.37,-14.53 -5.02,-4.32 -10.07,-9.12 -12.14,-15.41 -2.07,-6.3 -0.06,-14.42 6.01,-17.1 l -3.86,1.91 c -1.85,-29.79 -25.78,-53.76 -32.43,-82.87 -6.17,-27.04 3.91,-56.38 22.96,-76.54 19.05,-20.16 46.1,-31.65 73.62,-35.17 25.41,-3.24 52.24,0.18 74.3,13.21 11.63,6.88 22.29,17.29 24.6,30.61 2.64,15.28 -6.1,29.87 -13.07,43.72 -8.76,17.42 -15.26,37.41 -10.24,56.25 6.32,23.72 29.32,40.13 35.86,63.79"
         style="fill:#406fbf;fill-opacity:1;fill-rule:nonzero;stroke:none"
         id="path464" />
      <path
         d="m 3376.26,2333.21 c -5.95,0 -11.92,0.39 -17.8,1.14 -27.52,3.52 -54.57,15.01 -73.62,35.17 -15.26,16.14 -24.76,38.17 -24.77,60.2 0,5.48 0.58,10.96 1.81,16.34 6.65,29.11 30.58,53.08 32.43,82.87 l 3.1,-1.53 v 0 c -4.02,2.2 -6.04,6.94 -6.04,11.69 0,1.71 0.26,3.43 0.79,5.03 2.07,6.29 7.12,11.09 12.14,15.41 5.02,4.32 10.36,8.63 13.37,14.53 5.06,9.91 2.5,22.02 5.58,32.72 3.98,13.78 17.18,23.49 31.16,26.67 4.59,1.04 9.24,1.49 13.92,1.49 9.59,0 19.27,-1.89 28.58,-4.41 20.58,-5.58 40.85,-14.59 55.6,-29.99 11.57,-12.09 19.2,-28.66 19.2,-45.17 0,-4.52 -0.58,-9.03 -1.8,-13.44 -6.54,-23.66 -29.54,-40.07 -35.86,-63.79 -1.21,-4.56 -1.75,-9.19 -1.75,-13.84 0.01,-14.53 5.35,-29.21 11.99,-42.41 6.1,-12.11 13.55,-24.81 13.55,-38.03 0,-1.88 -0.15,-3.78 -0.48,-5.69 -2.31,-13.32 -12.97,-23.73 -24.6,-30.61 -16.95,-10.01 -36.72,-14.35 -56.5,-14.35 m -78.09,193.81 v 0 0 m 0,0 v 0 0"
         style="fill:#6d97d6;fill-opacity:1;fill-rule:nonzero;stroke:none"
         id="path466" />
      <path
         d="m 3146.39,2430.58 53.76,-134.82 92.97,122.49 72.77,-30.42 c 0,0 -57.01,-95.73 -102.01,-192.58 -47.92,-103.12 -112.6,-85.19 -151.7,-13.03 -35.82,66.12 -95.53,223.9 -95.53,223.9 l 129.74,24.46"
         style="fill:#c8685a;fill-opacity:1;fill-rule:nonzero;stroke:none"
         id="path468" />
      <path
         d="m 2754.56,2867.68 c 10.43,-52.16 34.21,-156.46 -1.88,-191.41 0,0 14.5,-52.15 110.88,-52.15 105.87,0 50.27,52.15 50.27,52.15 -57.89,13.77 -56.74,56.64 -46.83,96.9 l -112.44,94.51"
         style="fill:#c8685a;fill-opacity:1;fill-rule:nonzero;stroke:none"
         id="path470" />
      <path
         d="m 2972.75,2963.35 c -1.28,0.01 -2.51,0.52 -3.42,1.42 -1.81,1.83 -1.81,4.78 0,6.61 10.8,10.46 25.94,15.16 40.76,12.65 2.48,-0.57 4.03,-3.04 3.47,-5.52 l -0.04,-0.15 c -0.52,-2.5 -2.96,-4.09 -5.46,-3.57 l -0.09,0.02 c -11.77,2.08 -23.81,-1.72 -32.26,-10.16 -0.77,-0.82 -1.84,-1.29 -2.96,-1.3"
         style="fill:#17282f;fill-opacity:1;fill-rule:nonzero;stroke:none"
         id="path472" />
      <path
         d="m 2987.17,2902.97 c 2.82,-19.41 8.3,-38.34 16.31,-56.25 -9.38,-3.86 -20,-3.34 -28.95,1.42 l 12.64,54.83"
         style="fill:#b5413c;fill-opacity:1;fill-rule:nonzero;stroke:none"
         id="path474" />
      <path
         d="m 2983.15,2917.97 c -1.77,-7.79 0.95,-15.12 6.03,-16.3 5.08,-1.18 10.63,4.13 11.81,11.81 1.19,7.68 -0.82,15.01 -5.9,16.31 -5.09,1.3 -10.05,-4.02 -11.94,-11.82"
         style="fill:#17282f;fill-opacity:1;fill-rule:nonzero;stroke:none"
         id="path476" />
      <path
         d="m 2993.43,2930.03 19.85,0.94 c 0,0 -12.88,-12.4 -19.85,-0.94"
         style="fill:#17282f;fill-opacity:1;fill-rule:nonzero;stroke:none"
         id="path478" />
      <path
         d="m 2728.27,3006.6 c -16.19,-97.02 -25.05,-137.66 11.82,-198.16 55.54,-90.87 177.95,-90.28 222.62,0 40.29,80.94 59.91,225.92 -24.7,286.07 -59.58,43.12 -142.84,29.78 -185.95,-29.81 -12.45,-17.19 -20.6,-37.12 -23.79,-58.1"
         style="fill:#c8685a;fill-opacity:1;fill-rule:nonzero;stroke:none"
         id="path480" />
      <path
         d="m 2847.49,3140.39 c 80.93,33.25 165.44,10.96 173.59,-73.18 8.16,-84.13 -86.6,-164.24 -86.6,-164.24 l -86.99,237.42"
         style="fill:#17282f;fill-opacity:1;fill-rule:nonzero;stroke:none"
         id="path482" />
      <path
         d="m 2886.5,2921.99 c -2.22,-18.94 3.08,-37.99 14.76,-53.05 15.72,-19.74 38.17,-9.34 46.09,13.11 7.21,20.21 7.56,54.95 -14.06,66.65 -15.79,8.12 -35.17,1.91 -43.29,-13.87 -2.05,-3.99 -3.25,-8.36 -3.5,-12.84"
         style="fill:#c8685a;fill-opacity:1;fill-rule:nonzero;stroke:none"
         id="path484" />
      <path
         d="m 2926.36,2873.48 c -0.55,0 -1.11,0.19 -1.57,0.56 -9.84,8.03 -15.74,20.49 -15.75,33.18 l 0.01,0.79 c 0.08,4.23 0.83,8.8 3.42,12.72 2.41,3.59 6.44,6.31 11.08,6.35 l 1.39,-0.09 c 1.37,-0.17 2.34,-1.42 2.16,-2.79 -0.16,-1.27 -1.23,-2.19 -2.47,-2.19 -0.11,0 -0.22,0.01 -0.32,0.02 l -0.76,0.05 c -0.02,0 -0.05,0 -0.08,0 -2.48,0 -5.27,-1.72 -6.84,-4.12 -1.82,-2.71 -2.52,-6.33 -2.59,-10.05 v -0.69 c -0.01,-11.13 5.27,-22.28 13.9,-29.3 1.07,-0.87 1.24,-2.44 0.36,-3.52 -0.49,-0.6 -1.21,-0.92 -1.94,-0.92"
         style="fill:#82443d;fill-opacity:1;fill-rule:nonzero;stroke:none"
         id="path486" />
      <path
         d="m 2936.21,2685.78 c -29.52,8.31 -55.45,14.09 -55.45,14.09 l -3.37,0.19 60.18,23.74 -1.36,-38.02"
         style="fill:#a7a9a8;fill-opacity:1;fill-rule:nonzero;stroke:none"
         id="path488" />
      <path
         d="m 2742.1,2427.64 c -30.44,0 -61.2,0.33 -81.18,1.4 14.87,42.54 33,108.93 17.27,145.58 -6.13,14.17 -14.26,27.02 -24.05,37.34 l 111.59,44.03 c 14.1,-14.65 42.44,-31.87 97.83,-31.87 105.87,0 50.27,52.15 50.27,52.15 -19.32,4.6 -32.07,12.44 -40.1,22.34 l 3.66,1.45 3.37,-0.19 c 0,0 25.93,-5.78 55.45,-14.09 l -5.22,-145.11 64.39,-112.15 H 2882.7 l -26.69,24.66 -15.71,-24.66 c 0,0 -48.67,-0.88 -98.2,-0.88"
         style="fill:#2d5bb2;fill-opacity:1;fill-rule:nonzero;stroke:none"
         id="path490" />
      <path
         d="m 2660.92,2429.04 c -9.56,0.52 -16.66,1.2 -20.06,2.09 -46.38,12.22 -69.22,146 -69.85,148.02 l 83.13,32.81 c 9.79,-10.32 17.92,-23.17 24.05,-37.34 15.73,-36.65 -2.4,-103.04 -17.27,-145.58"
         style="fill:#2d5bb2;fill-opacity:1;fill-rule:nonzero;stroke:none"
         id="path492" />
      <path
         d="m 2863.56,2624.12 c -55.39,0 -83.73,17.22 -97.83,31.87 l 108,42.62 c 8.03,-9.9 20.78,-17.74 40.1,-22.34 0,0 55.6,-52.15 -50.27,-52.15"
         style="fill:#82443d;fill-opacity:1;fill-rule:nonzero;stroke:none"
         id="path494" />
      <path
         d="m 2917.22,2905.57 c 39.81,75.75 17.23,212.75 -70.73,238.42 -79.08,23.09 -204.48,-0.56 -199.75,-142.12 4.73,-141.56 -28.32,-126.75 -64.04,-217.66 -37.5,-95.44 -26.51,-221.08 36.91,-323.92 h 175.16 l 31.96,46.02 37.86,-46.02 h 152.06 c -75.05,104.13 -30.19,144.79 -21.09,239.32 9.1,94.53 -112.57,140.83 -78.34,205.96"
         style="fill:#17282f;fill-opacity:1;fill-rule:nonzero;stroke:none"
         id="path496" />
      <path
         d="m 2737.13,3117.85 c -4.68,10.82 -14.2,20.59 -25.97,21.34 -6.04,0.38 -11.96,-1.62 -17.68,-3.59 l -1.08,-7.48 c -4.61,-11.72 -14.05,-20.75 -21.13,-31.16 -7.08,-10.41 -11.79,-24.34 -5.77,-35.4 4.5,-8.27 14.06,-12.74 23.42,-13.73 17,-1.81 34.55,6.79 44.08,20.99 9.53,14.2 10.92,33.33 4.13,49.03"
         style="fill:#406fbf;fill-opacity:1;fill-rule:nonzero;stroke:none"
         id="path498" />
      <path
         d="m 2716.64,3065.01 c 5.77,12.66 9.73,41.51 7.05,52.29 -3.95,15.92 -15.11,29.2 -27.9,39.46 -6.5,5.2 -13.58,9.83 -21.46,12.49 -12.92,4.37 -27.1,3.16 -40.42,0.2 -15.1,-3.36 -30.17,-9.21 -41.14,-20.12 -14.9,-14.81 -20.18,-38.51 -12.97,-58.24 7.2,-19.73 26.51,-34.46 47.44,-36.19 -13.1,-3.79 -25.57,-9.78 -36.73,-17.62 -0.98,-0.69 -2.04,-1.54 -2.16,-2.74 -0.11,-1.13 0.68,-2.14 1.47,-2.96 6.89,-7.1 17.4,-9.7 27.27,-9.12 9.88,0.57 19.34,3.94 28.65,7.28 -2.87,-9.57 -5.75,-19.14 -8.63,-28.7 -0.88,-2.95 -1.77,-6.09 -0.94,-9.06 1.89,-6.7 10.85,-8.11 17.7,-6.89 20.98,3.74 38.2,19.71 48.45,38.39 7.07,12.91 11.21,27.09 14.32,41.53"
         style="fill:#17282f;fill-opacity:1;fill-rule:nonzero;stroke:none"
         id="path500" />
      <path
         d="m 3111.35,2037.17 c -17.62,46.33 -59.19,239.61 -59.19,239.61 l -184.98,-175.34 c -33.77,-17.35 -77.27,-16.68 -115.02,2.63 -58.5,29.93 -95.3,106.38 -95.3,106.38 0,0 6.48,-45.09 5.69,-87.46 -0.79,-42.37 -21.15,-105.46 -21.15,-105.46 0,0 65.31,19.29 180.44,29.54 115.13,10.25 331.5,-137.05 331.5,-137.05 0,0 -24.37,80.82 -41.99,127.15"
         style="fill:#17282f;fill-opacity:1;fill-rule:nonzero;stroke:none"
         id="path502" />
      <path
         d="m 2825.09,2082.29 c -7.3,62.41 -33.53,121.69 -75.91,168.26 -7.93,8.72 -19.56,17.89 -30.15,6.95 -9.23,-9.54 -7.88,-25.32 -5.56,-37.2 6.03,-30.87 27.42,-59.57 46.71,-83.62 22.81,-28.42 49.97,-53 80.15,-73.39 8.02,-5.42 15.53,7.57 7.57,12.95 -43.36,29.3 -80.4,68.39 -106.26,113.98 -6.96,12.27 -13.32,25.7 -14.56,39.95 -0.32,3.59 -1.39,16.66 4.07,16.37 4.35,-0.24 10.72,-10.24 13.43,-13.42 16.61,-19.48 30.39,-41.4 41.18,-64.61 12.63,-27.15 20.85,-56.48 24.33,-86.22 1.1,-9.47 16.12,-9.58 15,0"
         style="fill:#17282f;fill-opacity:1;fill-rule:nonzero;stroke:none"
         id="path504" />
      <path
         d="m 2822.21,2076.99 c 23.9,12.49 36.57,36.89 46.03,61.04 12.02,30.7 20.06,62.91 24.08,95.63 1.32,10.72 1.82,24.15 -7.96,31.3 -10.02,7.33 -22.15,2.52 -30.48,-5 -20.92,-18.86 -32.04,-50.17 -37.02,-77.1 -6.95,-37.67 -3.21,-75.96 0.71,-113.74 0.99,-9.5 16,-9.61 15,0 -3.6,34.73 -7.56,70.32 -2.06,105.06 2.37,14.93 6.38,29.84 12.74,43.58 3.08,6.64 6.69,13.06 10.84,19.09 3.33,4.84 10.04,15.53 16.52,16.4 14.3,1.93 4.6,-34.21 3.13,-41.95 -3.08,-16.14 -7.18,-32.09 -12.25,-47.73 -8.82,-27.18 -19.88,-59.52 -46.85,-73.63 -8.56,-4.47 -0.98,-17.42 7.57,-12.95"
         style="fill:#17282f;fill-opacity:1;fill-rule:nonzero;stroke:none"
         id="path506" />
      <path
         d="m 2791.89,2056.83 c 2.43,-0.82 4.85,-1.63 7.28,-2.44 -1.84,2.41 -3.67,4.82 -5.51,7.23 -11.17,-84.54 -15.66,-169.76 -13.45,-255 0.25,-9.64 15.25,-9.68 15,0 -2.21,85.24 2.28,170.46 13.45,255 0.44,3.34 -2.66,6.28 -5.51,7.23 -2.42,0.81 -4.85,1.63 -7.27,2.44 -9.17,3.08 -13.11,-11.4 -3.99,-14.46"
         style="fill:#17282f;fill-opacity:1;fill-rule:nonzero;stroke:none"
         id="path508" />
      <path
         d="m 2799,2057.04 c 20.69,-81.17 50.7,-159.67 89.32,-234 4.45,-8.57 17.4,-1 12.95,7.57 -38.04,73.22 -67.43,150.47 -87.81,230.42 -2.38,9.35 -16.85,5.38 -14.46,-3.99"
         style="fill:#17282f;fill-opacity:1;fill-rule:nonzero;stroke:none"
         id="path510" />
      <path
         d="m 3293.9,2416.53 c 0,0 -16.41,24.53 -11.38,48.42 5.02,23.89 2.68,44.3 7.65,61.8 4.97,17.5 15.33,-4.76 18.45,-17.71 3.12,-12.96 6.79,-27.61 16.14,-23.69 9.35,3.91 62.37,73.14 75.95,77.1 13.59,3.95 8.51,-9.93 8.51,-9.93 0,0 13.33,16.47 21.3,12.97 2.06,-0.91 5.4,-6.38 0.5,-14.84 -11.02,-19.02 -36.2,-57.76 -36.2,-57.76 1.4,2.25 35.9,47.85 41.95,54 7.92,8.04 15.76,7.8 20.27,3.06 6.42,-6.75 -34.42,-64.74 -34.43,-68.39 0,0 22.39,34.17 34.38,33.22 11.98,-0.96 -0.94,-23.24 -16.07,-40.72 -13.87,-16.02 -36.88,-51.09 -52.56,-66.01 -19.32,-18.39 -36.42,-26.39 -59.61,-17.03 -23.2,9.37 -34.85,25.51 -34.85,25.51"
         style="fill:#c8685a;fill-opacity:1;fill-rule:nonzero;stroke:none"
         id="path512" />
    </g>
  </g>
</svg>
